<svg version="1.1" id="Layer_1" xmlns="http://www.w3.org/2000/svg" xmlns:xlink="http://www.w3.org/1999/xlink" x="0px" y="0px"
	 width="100%" viewBox="0 0 261 244" enable-background="new 0 0 261 244" xml:space="preserve">
<path fill="#FDFDFD" opacity="1.000000" stroke="none" 
	d="
M258.000000,245.000000 
	C174.645767,245.000000 91.291542,245.000000 7.456193,244.747345 
	C6.815250,244.228333 6.655429,243.961975 6.495610,243.695618 
	C6.330410,244.130417 6.165206,244.565201 6.000001,245.000000 
	C4.933331,245.000000 3.866661,245.000000 2.295179,244.778046 
	C1.592974,244.276855 1.329518,244.091492 1.000000,244.000000 
	C1.000000,243.555557 1.000000,243.111099 1.349250,242.278687 
	C2.318873,241.164352 3.428040,240.470779 3.479367,239.706192 
	C3.785936,235.139526 4.047386,230.552261 3.950130,225.979858 
	C3.768649,217.447556 3.173171,208.922668 3.066690,200.390762 
	C3.013258,196.109436 3.971145,191.815521 3.918158,187.534149 
	C3.808450,178.669708 3.209754,169.811829 3.060635,160.947067 
	C3.002661,157.500702 3.915165,154.038757 3.866018,150.591324 
	C3.727761,140.893402 3.306862,131.199661 3.040894,121.503082 
	C3.018743,120.695511 3.430864,119.882408 3.457087,119.065956 
	C3.541298,116.444054 3.619640,113.817184 3.548310,111.196365 
	C3.471905,108.389053 3.019828,105.581512 3.087479,102.782669 
	C3.297725,94.084343 3.927763,85.389854 3.919496,76.694328 
	C3.911228,67.998634 3.306285,59.304260 3.021078,50.607403 
	C2.966922,48.956005 3.244706,47.296402 3.264319,45.639347 
	C3.304888,42.211754 3.177593,38.779991 3.294880,35.355957 
	C3.510650,29.056860 3.853205,22.762106 4.142919,16.465540 
	C4.703740,16.405380 5.264562,16.345221 5.825384,16.285059 
	C6.215631,17.514580 6.902751,18.733711 6.946194,19.975367 
	C7.167880,26.311625 4.887959,32.728344 7.887627,39.010288 
	C8.412358,40.109180 7.342550,41.877220 7.333257,43.338280 
	C7.271124,53.106781 7.312922,62.875893 7.283716,72.644691 
	C7.275539,75.379669 7.081348,78.114174 7.077290,80.849052 
	C7.063240,90.315826 7.101668,99.782669 7.106136,109.249481 
	C7.107498,112.135345 7.057354,115.021194 7.042338,117.907104 
	C7.024794,121.278725 7.025310,124.650436 7.007872,128.022049 
	C6.992157,131.060333 6.957084,134.098495 6.940976,137.136780 
	C6.923907,140.356018 6.866232,143.576324 6.925774,146.794327 
	C6.973186,149.356750 7.327066,151.919739 7.272898,154.476700 
	C7.071748,163.971863 6.474425,173.467545 6.571876,182.957428 
	C6.657916,191.336014 7.473955,199.707016 7.956045,208.082031 
	C7.974801,208.407867 7.950419,208.776810 7.815966,209.064926 
	C3.774607,217.724640 7.738008,226.317490 8.126094,234.925873 
	C8.247612,237.621353 10.198545,237.425110 12.469030,235.998825 
	C26.624880,235.999252 40.312119,235.999008 54.056877,236.344421 
	C57.479733,238.919479 58.659920,237.208115 59.375702,233.869553 
	C60.927151,233.195786 62.102634,232.633621 63.441376,231.843262 
	C63.754837,231.077728 63.905045,230.540405 64.464386,230.002136 
	C70.624657,229.558746 70.936600,228.864990 69.294830,224.523712 
	C70.461487,217.779083 72.049355,213.132965 71.776016,208.599045 
	C71.591202,205.533386 68.953873,202.671936 71.539627,199.367493 
	C71.808800,199.023514 70.730667,197.625259 70.281281,196.506927 
	C70.284897,196.297699 70.603157,196.025925 70.998436,195.878647 
	C71.861153,193.601257 72.328583,191.471161 72.713837,189.013550 
	C73.062431,187.446426 73.493202,186.206787 74.299271,184.973175 
	C80.060371,183.519928 81.189453,178.778839 82.787598,174.427261 
	C87.155968,173.359909 87.392120,173.231155 86.920273,168.932114 
	C86.735069,167.244705 85.392853,165.697708 85.134056,164.001831 
	C84.736015,161.393402 83.645866,157.476242 84.905273,156.281418 
	C89.600677,151.826859 86.849388,148.061218 84.974632,143.589401 
	C84.981659,142.124283 84.993195,141.061966 85.320961,139.837677 
	C87.292587,136.348373 89.496323,133.159454 90.385208,129.638596 
	C90.871071,127.714073 89.132423,125.227951 88.353920,122.659103 
	C88.296326,121.874580 88.281761,121.426048 88.398880,120.873764 
	C88.405586,120.516266 88.280594,120.262527 88.053345,119.682770 
	C87.964157,118.905373 87.977234,118.453995 88.384491,117.989670 
	C89.503784,116.939186 91.079659,115.552490 90.819763,114.919266 
	C88.697678,109.748901 92.031609,106.531372 94.528786,102.861038 
	C95.734550,101.088806 96.319824,98.894409 97.246498,96.751366 
	C86.684143,94.701797 84.954262,92.283661 85.897095,82.209106 
	C85.993301,81.181168 85.362083,80.085152 85.009918,78.674698 
	C85.057289,77.876556 85.163170,77.424438 85.463837,76.764908 
	C85.709412,76.186455 85.760185,75.815414 85.741081,75.325867 
	C85.671204,75.207367 85.837982,74.988541 86.202255,74.959488 
	C87.379288,73.646530 88.192062,72.362617 89.313568,70.936752 
	C90.290680,70.820892 90.959068,70.846992 91.981964,70.924438 
	C93.234489,70.794113 94.132507,70.612442 95.102280,70.285080 
	C95.174034,70.139389 95.498779,70.145767 95.794945,70.099899 
	C96.601234,69.613182 97.111359,69.172333 97.621483,68.731476 
	C96.929642,68.474449 96.237801,68.217422 95.316750,67.881828 
	C95.087540,67.803261 94.854317,67.378479 94.895844,66.935989 
	C96.755241,59.414246 98.347397,52.264473 100.523903,45.297253 
	C101.206650,43.111698 103.226120,41.146439 105.051186,39.560841 
	C107.853180,37.126495 111.016266,35.107773 114.402237,32.781067 
	C116.183174,33.187080 117.587982,33.724709 119.052841,34.556683 
	C119.744499,34.247784 120.376114,33.644543 120.999527,32.701294 
	C120.990997,31.909901 120.990669,31.458521 121.399414,30.989944 
	C122.538940,29.591654 123.438156,28.271872 123.966606,26.817381 
	C125.286377,23.184837 126.418152,19.484406 127.669014,15.826141 
	C128.031937,14.764766 129.066818,13.660316 128.901703,12.734723 
	C127.662888,5.790154 131.100037,4.065197 137.157318,4.926271 
	C137.764496,5.012586 138.560364,4.342272 139.056900,4.544093 
	C142.408432,5.906357 147.826096,2.659906 148.677338,8.998068 
	C148.094711,9.512116 147.823883,9.954066 147.553040,10.396015 
	C148.402969,10.570908 149.252884,10.745801 150.098434,10.954391 
	C150.094055,10.988089 150.026688,10.997140 150.018951,11.375680 
	C150.860260,14.378589 151.709290,17.002956 152.537109,19.561808 
	C147.639359,22.954662 146.853317,25.600458 149.146729,30.644215 
	C149.010773,31.276886 148.899536,31.631556 148.438141,32.079224 
	C146.833374,34.372150 145.430634,36.598236 149.060898,37.958702 
	C149.017639,37.989269 149.072647,37.898735 149.106598,38.272911 
	C150.717163,38.816956 152.324738,39.268356 153.864044,39.099079 
	C157.248825,38.726852 160.609589,38.094482 163.955200,37.440681 
	C164.677155,37.299599 165.293884,36.620003 166.430054,36.190437 
	C181.859222,36.255390 196.817398,36.318371 211.812469,36.585938 
	C211.849335,36.790524 211.944168,37.197166 212.004944,37.526085 
	C213.377731,38.240387 214.689758,38.625774 216.344147,39.031300 
	C217.143921,39.039921 217.601349,39.028408 218.454529,39.014656 
	C222.885178,38.678902 221.830963,41.647778 221.576202,43.937107 
	C219.523132,44.164360 217.874069,44.290222 216.079742,44.143108 
	C215.443710,43.842670 214.952911,43.815208 214.462128,43.787746 
	C214.972076,44.192379 215.482040,44.597012 215.976196,45.246712 
	C215.960419,45.491779 215.744919,45.933125 215.588379,45.984505 
	C215.227554,46.135773 215.071487,46.285839 214.642578,46.575802 
	C213.878799,46.664467 213.436081,46.663410 212.677338,46.444973 
	C209.575623,46.386044 206.789917,46.544498 203.750488,46.772274 
	C203.332306,46.902573 203.167877,46.963547 202.600128,46.949757 
	C200.835709,46.802910 199.474640,46.730831 198.037704,46.386353 
	C197.296051,46.380329 196.630249,46.646709 195.670364,46.995552 
	C194.879547,47.377499 194.382843,47.676987 193.533051,47.989815 
	C192.479263,48.724430 191.778549,49.445713 190.880005,50.439293 
	C189.436966,52.471134 188.191727,54.230675 186.615601,56.044632 
	C183.390259,59.819317 187.319458,59.143318 188.919449,60.396736 
	C187.736145,62.866421 186.452408,64.972023 184.769363,67.089890 
	C183.658936,69.222878 182.947784,71.343605 182.250534,73.730003 
	C182.154282,74.331245 182.044128,74.666824 181.692505,75.177429 
	C181.317963,75.918388 181.184891,76.484306 181.038620,77.023865 
	C181.025421,76.997490 181.064560,77.048897 180.721313,77.077103 
	C179.945206,78.746086 179.512344,80.386871 179.047592,82.322021 
	C178.682785,83.080177 178.349869,83.543976 177.695801,83.999596 
	C176.564850,84.472076 175.755035,84.952744 174.634888,85.538040 
	C173.892639,85.608879 173.460724,85.575073 172.923889,85.224998 
	C168.440582,80.698532 166.571457,80.741661 162.644989,85.082344 
	C161.562164,84.582863 160.807251,84.136963 160.029282,83.336517 
	C158.948318,82.384468 157.890411,81.786972 156.813248,81.171272 
	C156.793976,81.153076 156.805054,81.206764 156.861282,80.799118 
	C156.644302,76.669518 153.802765,78.409622 151.975555,78.039001 
	C152.004501,78.023911 151.949249,78.066895 151.925888,77.726028 
	C150.500320,75.404198 149.550323,75.700676 148.897461,78.291687 
	C148.854904,80.112663 148.905594,81.605293 148.975464,83.477783 
	C150.371948,84.526993 151.749252,85.196342 153.104294,85.845612 
	C153.082031,85.825516 153.141983,85.832039 153.094574,86.223480 
	C153.759918,88.097702 154.472656,89.580475 155.193466,91.458405 
	C155.027237,92.889175 154.852936,93.924805 154.335510,95.024323 
	C153.048462,95.895126 151.198746,96.843216 151.299164,97.487335 
	C152.447983,104.857285 149.147522,110.210503 143.833008,114.952003 
	C143.696335,115.074493 143.339478,115.160522 142.992538,115.137817 
	C142.606339,116.115372 142.567093,117.115639 142.676605,118.125351 
	C142.825363,118.134796 143.097778,118.013649 143.061127,118.304077 
	C143.052200,118.982986 143.079910,119.371468 143.067047,120.149902 
	C144.397659,122.349533 145.768875,124.159203 147.214081,126.096909 
	C147.288071,126.224945 147.244720,126.517502 147.175537,126.921722 
	C148.106232,128.520554 149.106140,129.715164 150.096909,130.950134 
	C150.087784,130.990509 150.068008,130.910217 150.127808,131.146820 
	C150.348892,131.685669 150.592056,131.890961 151.034897,132.223831 
	C151.203262,132.779419 151.253799,133.110428 151.234894,133.844421 
	C152.154358,135.797333 153.143265,137.347290 154.128479,138.933868 
	C154.124771,138.970474 154.107697,138.902588 154.065277,139.217529 
	C154.611038,140.189194 155.199219,140.845917 156.002609,141.491547 
	C156.217819,141.480469 156.637970,141.384354 156.730927,141.372192 
	C156.823883,141.360031 156.641388,141.317001 156.639374,141.681046 
	C156.829559,143.002106 157.021744,143.959106 156.918884,145.106079 
	C157.674179,147.209106 158.724487,149.122162 159.900238,151.388702 
	C161.043457,154.123657 162.061218,156.505157 163.098511,159.251251 
	C164.761948,161.396423 166.405853,163.176987 168.024200,164.976807 
	C167.998642,164.996063 168.047272,164.951218 168.013611,165.371216 
	C167.972748,168.527161 167.965546,171.263092 167.939575,174.328415 
	C167.856277,175.092621 167.791748,175.527466 167.490936,176.127991 
	C167.188019,177.203476 167.121384,178.113266 167.025848,179.353989 
	C166.892883,180.115036 166.788803,180.545181 166.483215,181.193665 
	C166.229813,181.995132 166.177887,182.578262 166.098389,183.541443 
	C166.006088,184.933365 165.941360,185.945236 165.726837,187.122482 
	C165.412140,187.535660 165.254349,187.787888 164.716888,188.100800 
	C164.055618,190.096878 163.662216,192.029099 163.536865,193.978531 
	C163.381210,196.399384 163.576767,198.844528 163.389740,201.261307 
	C163.036301,205.827896 161.882751,210.435242 162.261108,214.924576 
	C162.587357,218.795883 162.139374,224.013840 168.342957,225.034210 
	C168.785675,225.362976 168.952789,225.620453 169.025269,226.306793 
	C170.023514,227.438171 171.039185,228.190826 172.025787,228.966400 
	C171.996704,228.989304 172.052063,228.935013 172.072205,229.297363 
	C173.180756,232.237595 174.782135,232.808151 177.315338,230.962906 
	C178.021362,231.028397 178.424637,231.048111 178.902466,231.235535 
	C178.977036,231.403244 179.100555,231.748932 179.184479,232.048126 
	C179.813232,232.582413 180.358032,232.817520 181.122681,233.080872 
	C181.342514,233.109116 181.785706,233.100174 181.981049,233.335632 
	C182.753540,233.597702 183.330688,233.624298 184.369720,233.763412 
	C206.545120,233.956390 228.258636,234.036850 250.071686,234.278625 
	C250.452911,234.314178 250.734589,234.188400 251.271637,233.911407 
	C252.032852,232.998306 252.538666,232.236404 253.032562,231.498779 
	C253.020645,231.523071 253.026718,231.576797 253.057587,231.894348 
	C253.396027,232.488434 253.703598,232.764984 254.061066,233.379059 
	C256.740631,235.477692 259.370331,237.238846 262.000000,239.000000 
	C262.000000,239.000000 262.000000,239.500000 261.617615,239.760162 
	C260.489319,241.343216 259.743439,242.666107 258.777954,244.099365 
	C258.279785,244.407837 258.093658,244.671249 258.000000,245.000000 
M137.897186,168.134720 
	C137.897186,168.134720 137.782211,168.272186 137.895569,167.483307 
	C137.705505,163.987793 135.252884,164.042587 132.875839,164.050522 
	C132.875839,164.050522 132.784393,164.229401 132.921555,163.427032 
	C132.728012,161.118454 132.534485,158.809875 132.318832,156.237640 
	C131.255905,156.147858 130.170013,156.056137 129.012054,155.940155 
	C129.012054,155.940155 129.046173,155.872192 128.978485,155.579147 
	C128.906555,155.385818 128.787338,155.228256 128.124405,154.469131 
	C127.857224,153.711075 127.590050,152.953003 128.060791,151.839523 
	C130.267426,147.653778 128.662811,145.924332 123.851723,145.493271 
	C123.256340,144.589188 122.660957,143.685089 121.937210,142.174591 
	C120.964653,142.068497 119.992104,141.962402 118.368996,141.994171 
	C117.927368,142.032288 117.485733,142.070419 116.629364,141.591980 
	C116.138763,142.531113 115.648170,143.470230 115.078133,144.928909 
	C114.731323,145.290833 114.384514,145.652756 113.238525,146.022614 
	C112.531807,147.444916 111.825081,148.867233 111.128181,150.993011 
	C110.758148,152.328354 110.388123,153.663712 109.371490,155.314026 
	C108.231674,157.304688 106.644974,159.169571 106.042084,161.311386 
	C104.648506,166.262253 103.670166,171.230865 99.193390,174.680222 
	C98.285095,175.380066 98.535355,177.583511 98.152252,179.603134 
	C98.037109,179.732208 97.921967,179.861298 97.259819,180.057022 
	C97.132454,180.692810 97.005089,181.328613 96.836182,182.713287 
	C96.432098,184.137177 96.028015,185.561081 94.966019,187.176544 
	C95.019730,189.225143 95.073448,191.273758 95.008415,193.973984 
	C93.903671,196.108551 92.798920,198.243118 91.211090,200.915009 
	C90.801674,202.276276 90.392250,203.637558 89.288017,205.078293 
	C87.862831,207.097168 86.437645,209.116043 84.556671,211.563141 
	C83.933670,212.386795 83.310669,213.210464 82.340408,214.333099 
	C82.147034,214.596039 82.082298,214.887558 82.087227,215.123993 
	C82.087227,215.123993 82.189583,215.126785 81.378006,215.064346 
	C77.560005,215.078094 78.045036,217.821030 78.037338,220.288254 
	C78.025002,224.244934 77.968765,228.201492 77.938858,232.158157 
	C77.931038,233.193237 77.951973,234.228561 77.959702,235.263763 
	C79.017899,234.818665 80.076103,234.373581 82.054474,233.901993 
	C100.375687,233.973083 118.696899,234.044174 137.535217,234.620407 
	C139.352890,234.437454 141.170547,234.254501 143.350494,233.879135 
	C143.350494,233.879135 143.760086,233.901550 144.476852,233.957306 
	C145.202545,233.574814 145.928253,233.192322 146.653961,232.809845 
	C146.030609,232.183914 145.407242,231.557983 144.703232,230.262314 
	C144.833862,229.836807 144.964493,229.411285 145.553085,228.538910 
	C145.596115,228.122681 145.639130,227.706451 145.552933,226.566772 
	C146.225357,223.756271 146.897781,220.945755 148.121796,217.905060 
	C147.862015,217.264465 147.602234,216.623871 147.179535,215.100037 
	C146.694244,211.438171 146.208954,207.776306 146.393188,203.608292 
	C146.521591,201.336334 147.053741,198.998688 146.696854,196.805710 
	C145.878708,191.778412 143.389297,187.090378 145.811508,181.632874 
	C147.062988,178.813156 146.718964,175.219620 146.800964,171.968277 
	C146.861313,169.575394 146.407059,169.464172 143.086105,170.543137 
	C141.721359,169.986374 140.356613,169.429611 138.687775,168.469269 
	C138.371292,168.385406 138.054810,168.301529 137.897186,168.134720 
M167.764786,58.607895 
	C169.195068,59.773102 170.625366,60.938309 172.055649,62.103519 
	C173.720947,59.511539 175.386230,56.919563 177.051529,54.327587 
	C176.638748,53.997749 176.225967,53.667908 175.813187,53.338070 
	C172.798691,54.393890 167.834930,51.554802 167.764786,58.607895 
z"/>
<path fill="#F9FDFA" opacity="1.000000" stroke="none" 
	d="
M12.000422,235.998169 
	C10.198545,237.425110 8.247612,237.621353 8.126094,234.925873 
	C7.738008,226.317490 3.774607,217.724640 7.815966,209.064926 
	C7.950419,208.776810 7.974801,208.407867 7.956045,208.082031 
	C7.473955,199.707016 6.657916,191.336014 6.571876,182.957428 
	C6.474425,173.467545 7.071748,163.971863 7.272898,154.476700 
	C7.327066,151.919739 6.973186,149.356750 6.925774,146.794327 
	C6.866232,143.576324 6.923907,140.356018 6.940976,137.136780 
	C6.957084,134.098495 6.992157,131.060333 7.007872,128.022049 
	C7.025310,124.650436 7.024794,121.278725 7.042338,117.907104 
	C7.057354,115.021194 7.107498,112.135345 7.106136,109.249481 
	C7.101668,99.782669 7.063240,90.315826 7.077290,80.849052 
	C7.081348,78.114174 7.275539,75.379669 7.283716,72.644691 
	C7.312922,62.875893 7.271124,53.106781 7.333257,43.338280 
	C7.342550,41.877220 8.412358,40.109180 7.887627,39.010288 
	C4.887959,32.728344 7.167880,26.311625 6.946194,19.975367 
	C6.902751,18.733711 6.215631,17.514580 5.825384,16.285059 
	C5.264562,16.345221 4.703740,16.405380 4.142919,16.465540 
	C3.853205,22.762106 3.510650,29.056860 3.294880,35.355957 
	C3.177593,38.779991 3.304888,42.211754 3.264319,45.639347 
	C3.244706,47.296402 2.966922,48.956005 3.021078,50.607403 
	C3.306285,59.304260 3.911228,67.998634 3.919496,76.694328 
	C3.927763,85.389854 3.297725,94.084343 3.087479,102.782669 
	C3.019828,105.581512 3.471905,108.389053 3.548310,111.196365 
	C3.619640,113.817184 3.541298,116.444054 3.457087,119.065956 
	C3.430864,119.882408 3.018743,120.695511 3.040894,121.503082 
	C3.306862,131.199661 3.727761,140.893402 3.866018,150.591324 
	C3.915165,154.038757 3.002661,157.500702 3.060635,160.947067 
	C3.209754,169.811829 3.808450,178.669708 3.918158,187.534149 
	C3.971145,191.815521 3.013258,196.109436 3.066690,200.390762 
	C3.173171,208.922668 3.768649,217.447556 3.950130,225.979858 
	C4.047386,230.552261 3.785936,235.139526 3.479367,239.706192 
	C3.428040,240.470779 2.318873,241.164352 1.349250,241.945374 
	C1.000000,161.731308 1.000000,81.462624 1.000000,1.096969 
	C87.999939,1.096969 174.999954,1.096969 262.000000,1.096298 
	C262.000000,14.751312 262.000000,28.406998 261.646057,42.588207 
	C259.250793,45.116688 257.702271,48.039825 254.017731,46.635674 
	C253.670868,45.177647 253.338593,44.085411 252.961655,42.545502 
	C252.948959,39.400311 252.980927,36.702789 253.306580,33.708519 
	C253.921432,26.262886 254.262390,19.114653 254.496872,11.962925 
	C254.507019,11.653178 253.537628,11.311315 252.798508,10.778253 
	C252.077026,10.215321 251.581589,9.858549 250.915527,9.167459 
	C244.496170,8.564798 238.247437,8.296455 231.910126,7.628553 
	C230.824600,6.820183 229.828674,6.057394 228.830536,6.054490 
	C205.670593,5.987107 182.510254,5.973934 159.350677,6.088041 
	C158.231262,6.093556 157.118042,7.353090 155.596207,8.032226 
	C153.123367,8.332518 151.056244,8.629244 148.989136,8.925969 
	C147.826096,2.659906 142.408432,5.906357 139.056900,4.544093 
	C138.560364,4.342272 137.764496,5.012586 137.157318,4.926271 
	C131.100037,4.065197 127.662888,5.790154 128.901703,12.734723 
	C129.066818,13.660316 128.031937,14.764766 127.669014,15.826141 
	C126.418152,19.484406 125.286377,23.184837 123.966606,26.817381 
	C123.438156,28.271872 122.538940,29.591654 121.200714,30.791782 
	C120.482185,30.074888 120.371422,29.538963 120.581085,28.928207 
	C121.237389,24.528387 121.573280,20.203394 121.942215,15.921623 
	C121.975250,15.964845 121.874443,15.923886 122.244957,15.909227 
	C123.429497,14.308576 124.243530,12.722583 125.052673,11.090333 
	C125.047798,11.044076 125.140274,11.054209 125.400894,11.013214 
	C125.965591,10.500625 126.269661,10.029030 126.573738,9.557436 
	C126.134674,9.505110 125.695618,9.452785 124.785576,9.519043 
	C103.512360,9.660293 82.710045,9.657458 61.907898,9.713692 
	C45.273701,9.758657 28.639706,9.875470 11.573062,10.087428 
	C11.048333,11.534926 10.876010,12.855367 10.875619,14.175859 
	C10.863139,56.311516 10.842883,98.447205 10.877314,140.582840 
	C10.901397,170.054962 11.003663,199.527023 10.977396,229.461853 
	C10.926733,231.181274 10.969683,232.437927 11.196941,233.879120 
	C11.587641,234.708481 11.794031,235.353333 12.000422,235.998169 
z"/>
<path fill="#FDFDFC" opacity="1.000000" stroke="none" 
	d="
M254.032288,47.001457 
	C257.702271,48.039825 259.250793,45.116688 261.646057,43.056866 
	C262.000000,104.687561 262.000000,166.375122 261.616516,228.531784 
	C258.841736,229.004425 256.450439,229.007965 253.938904,228.792572 
	C253.625900,228.286270 253.364853,228.089508 252.991730,227.517426 
	C252.983582,175.037460 253.019211,123.023422 253.339920,70.705963 
	C253.760757,62.602180 253.896530,54.801819 254.032288,47.001457 
z"/>
<path fill="#F9FDFA" opacity="1.000000" stroke="none" 
	d="
M254.059158,229.011505 
	C256.450439,229.007965 258.841736,229.004425 261.616516,229.000443 
	C262.000000,232.030594 262.000000,235.061188 262.000000,238.545898 
	C259.370331,237.238846 256.740631,235.477692 253.945801,233.106842 
	C253.529343,232.190369 253.278030,231.883591 253.026703,231.576813 
	C253.026718,231.576797 253.020645,231.523071 252.992355,231.087708 
	C252.988129,230.108704 253.012192,229.565079 253.292023,229.023987 
	C253.718231,229.021515 253.888687,229.016510 254.059158,229.011505 
z"/>
<path fill="#F9FDFA" opacity="1.000000" stroke="none" 
	d="
M258.997559,243.989014 
	C259.743439,242.666107 260.489319,241.343216 261.617615,240.010162 
	C262.000000,241.066666 262.000000,242.133347 261.624725,243.599579 
	C260.498810,243.995773 259.748199,243.992401 258.997559,243.989014 
z"/>
<path fill="#EAF0F6" opacity="1.000000" stroke="none" 
	d="
M258.777954,244.099380 
	C259.748199,243.992401 260.498810,243.995773 261.624725,243.999573 
	C261.000000,244.333328 260.000000,244.666656 258.500000,245.000000 
	C258.093658,244.671249 258.279785,244.407837 258.777954,244.099380 
z"/>
<path fill="#EAF0F6" opacity="1.000000" stroke="none" 
	d="
M6.250001,245.000000 
	C6.165206,244.565201 6.330410,244.130417 6.495610,243.695618 
	C6.655429,243.961975 6.815250,244.228333 6.987536,244.747345 
	C7.000000,245.000000 6.500000,245.000000 6.250001,245.000000 
z"/>
<path fill="#EAF0F6" opacity="1.000000" stroke="none" 
	d="
M1.000000,244.500000 
	C1.329518,244.091492 1.592974,244.276855 1.895183,244.778046 
	C1.666667,245.000000 1.333333,245.000000 1.000000,244.500000 
z"/>
<path fill="#F99C19" opacity="1.000000" stroke="none" 
	d="
M179.100555,231.748932 
	C179.100555,231.748932 178.977036,231.403244 179.139221,231.051788 
	C177.849838,230.157013 176.398300,229.613678 174.941681,229.066788 
	C174.936584,229.063248 174.917130,229.087067 174.892944,228.746613 
	C172.560089,226.620422 170.251450,224.834671 167.967041,223.026184 
	C167.991287,223.003418 167.948395,223.046631 167.970642,222.652039 
	C165.063492,216.231018 164.113235,210.017349 165.981354,203.451401 
	C166.285889,202.380981 165.930588,201.122818 165.883362,199.585632 
	C165.895813,198.488342 165.905167,197.756836 166.217010,196.746033 
	C166.647186,193.307343 166.774887,190.147964 167.081970,186.638077 
	C167.965652,180.153687 168.669968,174.019806 169.317230,167.531372 
	C169.188782,166.463028 169.117371,165.749222 169.234436,164.781891 
	C168.594193,162.368607 167.997284,160.077896 166.871872,158.085739 
	C165.735092,156.073395 163.869934,154.478256 162.687836,152.484543 
	C160.530594,148.846085 158.642029,145.048309 156.641388,141.317001 
	C156.641388,141.317001 156.823883,141.360031 156.824265,140.979218 
	C155.547485,137.424088 154.706360,133.969284 152.888229,131.142975 
	C150.331375,127.168297 147.049469,123.660034 143.838928,119.885056 
	C143.600220,119.817802 143.107635,119.759949 143.107635,119.759949 
	C143.079910,119.371468 143.052200,118.982986 143.407288,118.263855 
	C145.740433,116.505379 147.690781,115.077568 149.775787,113.833580 
	C149.910416,114.017410 149.657486,113.639549 150.023987,113.628571 
	C155.171143,106.420654 156.592987,98.393669 156.211807,89.567734 
	C156.081116,88.487808 155.983047,87.769318 156.076691,86.920715 
	C155.829544,86.539917 155.390686,86.289223 154.960052,86.029175 
	C154.968277,86.019806 154.959412,86.051651 154.982727,85.677399 
	C155.972488,84.557922 156.938950,83.812706 158.136856,83.135963 
	C158.672745,83.345535 158.898758,83.566750 159.074982,84.235016 
	C164.130066,88.346817 172.381271,89.081856 177.569229,86.157150 
	C178.889832,85.090538 180.124878,84.230278 180.769165,83.048065 
	C184.021011,77.081230 187.207230,71.073921 190.203659,64.976234 
	C190.881302,63.597244 191.391418,61.483112 190.814987,60.252407 
	C188.156372,54.576134 191.782944,51.960125 195.801178,49.962608 
	C197.853287,48.942486 200.570709,49.260746 203.397919,48.982574 
	C205.582047,48.667610 207.450714,47.822758 209.110245,48.125237 
	C213.001938,48.834568 216.520309,48.699242 219.850098,46.294472 
	C220.538010,45.797668 221.773514,46.050186 222.757935,45.974384 
	C228.341949,45.544426 233.926346,45.119652 239.850494,44.677910 
	C241.095078,44.705498 241.999771,44.748299 243.118744,45.095432 
	C246.464264,46.241035 248.071976,44.994946 247.955353,41.799335 
	C247.814438,37.937481 244.613846,38.250786 242.191284,38.127186 
	C236.540833,37.838882 230.873001,37.891441 225.090591,37.444756 
	C224.029861,34.671356 223.090744,32.259125 222.043823,29.511482 
	C219.182297,27.085726 218.078903,28.729286 216.931427,31.128185 
	C216.371872,32.297966 215.005936,33.082024 213.961090,33.724888 
	C213.450989,33.140873 212.984818,32.872643 212.518631,32.604412 
	C212.340439,33.388256 212.162262,34.172096 211.516479,34.962616 
	C197.042725,34.944397 183.036575,34.919498 169.020798,34.505302 
	C168.944260,31.849798 169.419922,29.258909 165.592285,28.971542 
	C159.968246,26.331007 160.233398,30.839069 159.458374,33.573097 
	C156.523270,34.140614 153.889633,34.649845 150.334671,35.337215 
	C151.246597,33.555050 151.566345,31.800446 152.375977,31.533903 
	C157.122009,29.971466 156.591461,26.426041 156.120514,22.763535 
	C155.702774,19.514704 155.368881,16.255093 155.413574,13.053158 
	C157.115707,13.401054 158.401794,13.951222 159.688858,13.953514 
	C188.320679,14.004485 216.952774,14.029423 245.583801,13.871459 
	C246.731461,13.865127 247.868973,12.016355 249.409760,11.110273 
	C250.208984,12.690704 250.958923,14.186583 250.960205,15.683105 
	C251.020828,86.000755 250.972122,156.318558 251.121643,226.635956 
	C251.131363,231.203690 249.666824,232.156158 245.413361,232.115540 
	C223.920486,231.910324 202.424637,232.013611 180.626099,231.949005 
	C179.915085,231.842545 179.507812,231.795731 179.100555,231.748932 
z"/>
<path fill="#262D6E" opacity="1.000000" stroke="none" 
	d="
M120.260666,29.003036 
	C120.371422,29.538963 120.482185,30.074888 120.791641,30.808977 
	C120.990669,31.458521 120.990997,31.909901 120.740891,32.850037 
	C119.991226,33.646637 119.492012,33.954487 118.992798,34.262337 
	C117.587982,33.724709 116.183174,33.187080 114.095047,32.665344 
	C104.509315,32.481060 99.304291,36.971554 97.155617,45.418461 
	C96.258133,48.946667 94.767014,52.395409 94.401695,55.967804 
	C94.018333,59.716732 94.660393,63.570518 94.854317,67.378479 
	C94.854317,67.378479 95.087540,67.803261 95.374466,68.244904 
	C95.607185,69.172951 95.552979,69.659355 95.498779,70.145767 
	C95.498779,70.145767 95.174034,70.139389 94.753433,70.250923 
	C93.431038,70.532669 92.529243,70.702881 91.627449,70.873085 
	C90.959068,70.846992 90.290680,70.820892 88.946457,70.923660 
	C87.459747,72.364532 86.648865,73.676537 85.837982,74.988541 
	C85.837982,74.988541 85.671204,75.207367 85.510147,75.516090 
	C85.322403,76.207314 85.295723,76.589821 85.269043,76.972321 
	C85.163170,77.424438 85.057289,77.876556 84.834808,79.018318 
	C84.551041,80.858429 84.533417,82.055290 84.193138,83.152046 
	C81.391411,92.182259 82.292908,94.384689 90.371567,98.025208 
	C90.563065,98.111504 90.619209,98.498192 90.860870,98.997757 
	C89.384804,99.357780 87.975288,99.701576 85.819855,100.227310 
	C86.554893,106.247040 87.272606,112.124832 87.990318,118.002625 
	C87.977234,118.453995 87.964157,118.905373 87.998886,119.934433 
	C88.120193,120.667252 88.193695,120.822388 88.267197,120.977516 
	C88.281761,121.426048 88.296326,121.874580 88.057800,122.889801 
	C83.152657,126.465355 81.709709,134.990723 85.004730,139.999649 
	C84.993195,141.061966 84.981659,142.124283 84.732681,143.873108 
	C82.757553,151.783676 79.878464,158.919739 83.842674,166.413452 
	C84.371346,167.412827 83.410439,169.519897 82.646736,170.825958 
	C79.851852,175.605591 76.848694,180.263443 73.923965,184.967163 
	C73.493202,186.206787 73.062431,187.446426 72.454285,189.316177 
	C71.718987,191.972839 71.161072,193.999390 70.603157,196.025925 
	C70.603157,196.025925 70.284897,196.297699 70.070480,196.748566 
	C68.478027,201.366547 62.775623,205.099792 68.614510,210.055069 
	C68.980240,210.365433 68.379829,211.872528 68.158936,212.806290 
	C66.802238,218.541214 65.425392,224.271347 64.055252,230.003082 
	C63.905045,230.540405 63.754837,231.077728 62.954819,231.817535 
	C47.001263,232.013397 31.697514,232.008453 16.393772,231.998184 
	C14.256833,231.996735 11.777955,232.470261 12.005610,228.531982 
	C12.023956,155.722260 12.034518,83.381218 12.509089,11.026940 
	C23.470251,11.009845 33.967407,11.003163 44.464565,11.002712 
	C68.624748,11.001676 92.784943,10.995372 116.945099,11.018232 
	C119.176460,11.020344 121.861130,10.342674 122.281647,14.074617 
	C122.102386,14.867719 121.988419,15.395803 121.874451,15.923887 
	C121.874443,15.923886 121.975250,15.964845 121.651428,16.154097 
	C120.971954,20.563246 120.616310,24.783140 120.260666,29.003036 
z"/>
<path fill="#282E6E" opacity="1.000000" stroke="none" 
	d="
M95.623932,186.984970 
	C96.028015,185.561081 96.432098,184.137177 97.059921,182.140884 
	C97.458038,181.042450 97.632423,180.516418 97.806808,179.990387 
	C97.921967,179.861298 98.037109,179.732208 98.479706,179.172684 
	C101.497276,175.499420 104.981056,172.618668 106.668991,168.918655 
	C108.613365,164.656525 108.971230,159.670624 110.018097,154.999054 
	C110.388123,153.663712 110.758148,152.328354 111.401443,150.463135 
	C112.462364,148.627075 113.250031,147.320877 114.037689,146.014679 
	C114.384514,145.652756 114.731323,145.290833 115.388092,144.524902 
	C116.146744,143.450104 116.595428,142.779312 117.044106,142.108536 
	C117.485733,142.070419 117.927368,142.032288 118.963501,142.101242 
	C120.393860,142.399200 121.229713,142.590103 122.065567,142.781006 
	C122.660957,143.685089 123.256340,144.589188 124.143936,146.051117 
	C125.398392,148.470947 126.360634,150.332947 127.322876,152.194946 
	C127.590050,152.953003 127.857224,153.711075 128.331482,154.957031 
	C128.613144,155.699646 128.782349,155.842072 129.046173,155.872192 
	C129.046173,155.872192 129.012054,155.940155 129.060440,156.312439 
	C130.334015,159.199600 131.559204,161.714508 132.784393,164.229401 
	C132.784393,164.229401 132.875839,164.050522 132.836090,164.483032 
	C134.458298,166.034409 136.120255,167.153305 137.782211,168.272186 
	C137.782211,168.272186 137.897186,168.134720 137.937988,168.417755 
	C138.316483,168.758148 138.654175,168.815506 138.991882,168.872864 
	C140.356613,169.429611 141.721359,169.986374 143.738434,170.804169 
	C144.226959,173.043442 144.757797,175.504166 143.777634,176.915405 
	C139.800110,182.642242 141.253204,188.402832 142.809357,194.302750 
	C143.307999,196.193283 143.606384,198.136627 143.970154,200.195923 
	C143.954651,200.538345 144.037918,200.704254 144.401672,201.154572 
	C144.693665,201.974564 144.777695,202.473755 144.624664,203.258209 
	C144.991043,211.148697 146.293915,218.662766 144.205566,226.371094 
	C143.138580,230.309494 142.174545,232.220230 137.586731,232.172928 
	C118.528008,231.976349 99.464813,232.213623 80.273849,231.983200 
	C80.163025,230.785782 80.181625,229.896835 80.345764,228.911621 
	C80.539352,228.710037 80.656403,228.564865 80.622810,228.506714 
	C80.513077,228.316772 80.348412,228.158569 80.146858,227.665604 
	C80.131966,226.909882 80.175087,226.476730 80.564674,225.929321 
	C81.273476,222.875931 81.635818,219.936798 82.016594,216.682877 
	C82.086548,215.954315 82.138069,215.540558 82.189583,215.126785 
	C82.189583,215.126785 82.087227,215.123993 82.304871,215.120819 
	C82.522514,215.117630 82.865738,214.938522 83.225494,214.938202 
	C85.071632,213.741058 86.558006,212.544235 88.326439,211.215881 
	C89.085297,210.723923 89.562096,210.363510 90.306305,209.730286 
	C90.947205,206.430893 91.320686,203.404282 91.694168,200.377686 
	C92.798920,198.243118 93.903671,196.108551 95.330307,193.431854 
	C95.642784,190.921463 95.633354,188.953217 95.623932,186.984970 
z"/>
<path fill="#E5A745" opacity="1.000000" stroke="none" 
	d="
M180.929840,232.008682 
	C202.424637,232.013611 223.920486,231.910324 245.413361,232.115540 
	C249.666824,232.156158 251.131363,231.203690 251.121643,226.635956 
	C250.972122,156.318558 251.020828,86.000755 250.960205,15.683105 
	C250.958923,14.186583 250.208984,12.690704 248.939987,11.096895 
	C218.823807,10.996905 189.575775,10.959492 160.328384,11.078141 
	C158.549011,11.085361 156.774658,12.330890 154.997971,13.000240 
	C155.368881,16.255093 155.702774,19.514704 156.120514,22.763535 
	C156.591461,26.426041 157.122009,29.971466 152.375977,31.533903 
	C151.566345,31.800446 151.246597,33.555050 150.334671,35.337215 
	C153.889633,34.649845 156.523270,34.140614 159.458374,33.573097 
	C160.233398,30.839069 159.968246,26.331007 165.647095,29.340153 
	C167.058319,31.470678 168.044373,33.182640 169.030411,34.894604 
	C183.036575,34.919498 197.042725,34.944397 211.815002,34.962418 
	C213.055756,34.650593 213.530380,34.345638 214.005020,34.040680 
	C215.005936,33.082024 216.371872,32.297966 216.931427,31.128185 
	C218.078903,28.729286 219.182297,27.085726 221.973007,29.581341 
	C222.009979,29.986607 221.869080,30.122704 221.477234,30.031918 
	C217.358826,29.470760 218.010559,31.872831 218.298477,34.462639 
	C218.111023,35.868118 217.993668,36.893166 217.600098,37.906445 
	C216.956146,37.865364 216.588394,37.836048 216.156616,37.615406 
	C216.092560,37.424080 215.933273,37.053322 215.734253,36.730534 
	C214.282028,36.398949 213.028809,36.390148 211.775589,36.381351 
	C196.817398,36.318371 181.859222,36.255390 166.384506,35.796776 
	C165.697861,34.764782 165.642273,34.065296 165.333603,33.505322 
	C164.706451,32.367565 163.942535,31.305197 163.235001,30.211758 
	C162.542068,31.336056 161.920654,32.513603 161.134949,33.568825 
	C160.430450,34.514984 159.681519,35.849178 158.714584,36.101452 
	C155.559082,36.924713 152.294983,37.331646 149.072647,37.898735 
	C149.072647,37.898735 149.017639,37.989269 149.081955,37.534607 
	C149.026947,35.382034 148.907623,33.684132 148.788300,31.986225 
	C148.899536,31.631556 149.010773,31.276886 149.509247,30.556740 
	C152.922104,29.427191 155.234543,27.838152 154.762054,24.387314 
	C154.111481,19.635948 155.004913,14.247703 150.026688,10.997140 
	C150.026688,10.997140 150.094055,10.988089 150.387146,10.663754 
	C152.812164,10.165803 154.943863,9.844569 157.076035,9.841221 
	C180.462662,9.804487 203.849411,9.843354 227.236008,9.802269 
	C235.186203,9.788302 243.136108,9.606752 251.086136,9.501778 
	C251.581589,9.858549 252.077026,10.215321 252.730148,11.244270 
	C252.929504,19.279387 252.971191,26.642324 253.012894,34.005264 
	C252.980927,36.702789 252.948959,39.400311 252.877762,43.008942 
	C252.910645,52.949829 252.982742,61.979607 253.054855,71.009384 
	C253.019211,123.023422 252.983582,175.037460 252.927887,227.777069 
	C252.950638,228.675583 252.993454,228.848526 253.036255,229.021454 
	C253.012192,229.565079 252.988129,230.108704 253.004272,231.063416 
	C252.538666,232.236404 252.032852,232.998306 251.007172,233.860107 
	C250.315582,234.012436 250.143860,234.064865 249.972137,234.117310 
	C228.258636,234.036850 206.545120,233.956390 184.156250,233.576096 
	C182.915817,233.217560 182.350769,233.158875 181.785706,233.100174 
	C181.785706,233.100174 181.342514,233.109116 181.136414,232.819992 
	C180.930161,232.356812 180.930008,232.182739 180.929840,232.008682 
z"/>
<path fill="#FBF0CA" opacity="1.000000" stroke="none" 
	d="
M250.915527,9.167459 
	C243.136108,9.606752 235.186203,9.788302 227.236008,9.802269 
	C203.849411,9.843354 180.462662,9.804487 157.076035,9.841221 
	C154.943863,9.844569 152.812164,10.165803 150.391541,10.630056 
	C149.252884,10.745801 148.402969,10.570908 147.553040,10.396015 
	C147.823883,9.954066 148.094711,9.512116 148.677338,8.998068 
	C151.056244,8.629244 153.123367,8.332518 156.064758,8.034557 
	C181.958923,8.031586 206.978806,8.029849 231.998703,8.028113 
	C238.247437,8.296455 244.496170,8.564798 250.915527,9.167459 
z"/>
<path fill="#F4F6F7" opacity="1.000000" stroke="none" 
	d="
M88.384491,117.989670 
	C87.272606,112.124832 86.554893,106.247040 85.819855,100.227310 
	C87.975288,99.701576 89.384804,99.357780 90.860870,98.997757 
	C90.619209,98.498192 90.563065,98.111504 90.371567,98.025208 
	C82.292908,94.384689 81.391411,92.182259 84.193138,83.152046 
	C84.533417,82.055290 84.551041,80.858429 84.893311,79.364342 
	C85.362083,80.085152 85.993301,81.181168 85.897095,82.209106 
	C84.954262,92.283661 86.684143,94.701797 97.246498,96.751366 
	C96.319824,98.894409 95.734550,101.088806 94.528786,102.861038 
	C92.031609,106.531372 88.697678,109.748901 90.819763,114.919266 
	C91.079659,115.552490 89.503784,116.939186 88.384491,117.989670 
z"/>
<path fill="#464B72" opacity="1.000000" stroke="none" 
	d="
M80.403259,232.291687 
	C99.464813,232.213623 118.528008,231.976349 137.586731,232.172928 
	C142.174545,232.220230 143.138580,230.309494 144.205566,226.371094 
	C146.293915,218.662766 144.991043,211.148697 144.773514,203.450623 
	C145.224335,203.701859 145.412415,203.954086 145.723663,204.114441 
	C146.208954,207.776306 146.694244,211.438171 147.184570,215.812897 
	C147.316467,217.062256 147.443329,217.598755 147.570190,218.135254 
	C146.897781,220.945755 146.225357,223.756271 145.388702,227.152679 
	C145.181335,228.154312 145.138229,228.570038 145.095123,228.985779 
	C144.964493,229.411285 144.833862,229.836807 144.550858,230.850189 
	C144.185684,232.259216 143.972885,233.080383 143.760086,233.901550 
	C143.760086,233.901550 143.350494,233.879135 142.746857,233.902069 
	C140.434860,233.988403 138.726486,234.051834 137.018112,234.115265 
	C118.696899,234.044174 100.375687,233.973083 81.454086,233.646881 
	C80.703560,233.025085 80.553413,232.658386 80.403259,232.291687 
z"/>
<path fill="#F4F6F7" opacity="1.000000" stroke="none" 
	d="
M74.299263,184.973175 
	C76.848694,180.263443 79.851852,175.605591 82.646736,170.825958 
	C83.410439,169.519897 84.371346,167.412827 83.842674,166.413452 
	C79.878464,158.919739 82.757553,151.783676 84.737198,144.275909 
	C86.849388,148.061218 89.600677,151.826859 84.905273,156.281418 
	C83.645866,157.476242 84.736015,161.393402 85.134056,164.001831 
	C85.392853,165.697708 86.735069,167.244705 86.920273,168.932114 
	C87.392120,173.231155 87.155968,173.359909 82.787598,174.427261 
	C81.189453,178.778839 80.060371,183.519928 74.299263,184.973175 
z"/>
<path fill="#F4F6F7" opacity="1.000000" stroke="none" 
	d="
M64.464386,230.002136 
	C65.425392,224.271347 66.802238,218.541214 68.158936,212.806290 
	C68.379829,211.872528 68.980240,210.365433 68.614510,210.055069 
	C62.775623,205.099792 68.478027,201.366547 70.066864,196.957794 
	C70.730667,197.625259 71.808800,199.023514 71.539627,199.367493 
	C68.953873,202.671936 71.591202,205.533386 71.776016,208.599045 
	C72.049355,213.132965 70.461487,217.779083 69.294830,224.523712 
	C70.936600,228.864990 70.624657,229.558746 64.464386,230.002136 
z"/>
<path fill="#F4F6F7" opacity="1.000000" stroke="none" 
	d="
M94.895844,66.935989 
	C94.660393,63.570518 94.018333,59.716732 94.401695,55.967804 
	C94.767014,52.395409 96.258133,48.946667 97.155617,45.418461 
	C99.304291,36.971554 104.509315,32.481060 113.718933,32.796959 
	C111.016266,35.107773 107.853180,37.126495 105.051186,39.560841 
	C103.226120,41.146439 101.206650,43.111698 100.523903,45.297253 
	C98.347397,52.264473 96.755241,59.414246 94.895844,66.935989 
z"/>
<path fill="#FCF9EB" opacity="1.000000" stroke="none" 
	d="
M217.876312,37.918209 
	C217.993668,36.893166 218.111023,35.868118 218.622620,34.442749 
	C219.882324,34.058083 220.747787,34.073730 221.691864,34.405159 
	C221.763290,35.153763 221.756134,35.586586 221.559753,36.221626 
	C221.749161,36.867439 222.127777,37.311035 222.768219,37.794445 
	C223.349670,37.981857 223.669296,38.129456 224.069366,38.433647 
	C224.293045,38.785652 224.478592,38.924583 224.930344,39.259548 
	C225.745544,39.827271 226.336838,40.142475 227.016800,40.736790 
	C228.095062,40.833988 229.084641,40.652077 230.527283,40.386600 
	C235.648880,40.288616 240.317429,40.274197 245.070724,40.418915 
	C245.302185,40.777767 245.491806,40.920563 245.808640,41.324028 
	C245.855438,42.075813 245.817886,42.510006 245.506454,42.981697 
	C244.820984,43.354248 244.409393,43.689308 243.788544,44.117336 
	C243.262009,44.296589 243.037064,44.490185 242.904480,44.791100 
	C241.999771,44.748299 241.095078,44.705498 239.491821,44.421944 
	C233.188904,44.066029 227.584564,43.950874 221.980209,43.835716 
	C221.830963,41.647778 222.885178,38.678902 218.425537,38.737137 
	C217.959274,38.280636 217.917786,38.099422 217.876312,37.918209 
z"/>
<path fill="#E5AF58" opacity="1.000000" stroke="none" 
	d="
M202.987411,48.974068 
	C200.570709,49.260746 197.853287,48.942486 195.801178,49.962608 
	C191.782944,51.960125 188.156372,54.576134 190.814987,60.252407 
	C191.391418,61.483112 190.881302,63.597244 190.203659,64.976234 
	C187.207230,71.073921 184.021011,77.081230 180.769165,83.048065 
	C180.124878,84.230278 178.889832,85.090538 177.469482,86.046539 
	C177.011734,85.993797 176.822281,85.769119 176.998962,85.563126 
	C177.456070,84.907349 177.736511,84.457558 178.016937,84.007782 
	C178.349869,83.543976 178.682785,83.080177 179.300354,82.097946 
	C180.078186,80.069305 180.571365,78.559097 181.064545,77.048897 
	C181.064560,77.048897 181.025421,76.997490 181.288422,76.856964 
	C181.678940,76.145088 181.806458,75.573746 181.933975,75.002396 
	C182.044128,74.666824 182.154282,74.331245 182.524231,73.490738 
	C183.578903,71.016403 184.373779,69.047020 185.168671,67.077637 
	C186.452408,64.972023 187.736145,62.866421 188.950089,60.066639 
	C188.235703,58.245049 187.591095,57.117634 186.946503,55.990219 
	C188.191727,54.230675 189.436966,52.471134 191.204880,50.397240 
	C192.447083,49.380756 193.166611,48.678623 193.886139,47.976482 
	C194.382843,47.676987 194.879547,47.377499 196.034576,47.022854 
	C197.166443,46.864716 197.640015,46.761730 198.113571,46.658752 
	C199.474640,46.730831 200.835709,46.802910 202.599670,47.274788 
	C202.997513,48.107746 202.992462,48.540909 202.987411,48.974068 
z"/>
<path fill="#F4F6F7" opacity="1.000000" stroke="none" 
	d="
M146.058426,203.861359 
	C145.412415,203.954086 145.224335,203.701859 145.010590,203.165344 
	C144.777695,202.473755 144.693665,201.974564 144.486404,201.014435 
	C144.360275,200.299728 144.238007,200.133850 143.996399,200.055817 
	C143.606384,198.136627 143.307999,196.193283 142.809357,194.302750 
	C141.253204,188.402832 139.800110,182.642242 143.777634,176.915405 
	C144.757797,175.504166 144.226959,173.043442 144.105103,170.851593 
	C146.407059,169.464172 146.861313,169.575394 146.800964,171.968277 
	C146.718964,175.219620 147.062988,178.813156 145.811508,181.632874 
	C143.389297,187.090378 145.878708,191.778412 146.696854,196.805710 
	C147.053741,198.998688 146.521591,201.336334 146.058426,203.861359 
z"/>
<path fill="#1B1F50" opacity="1.000000" stroke="none" 
	d="
M11.997825,229.000671 
	C11.777955,232.470261 14.256833,231.996735 16.393772,231.998184 
	C31.697514,232.008453 47.001263,232.013397 62.791565,232.045746 
	C62.102634,232.633621 60.927151,233.195786 58.970215,233.752380 
	C56.792145,233.820648 55.395523,233.894470 53.542377,233.853210 
	C39.061443,233.723633 25.037039,233.709122 11.012632,233.694595 
	C10.969683,232.437927 10.926733,231.181274 11.209098,229.463013 
	C11.534412,229.001419 11.997825,229.000671 11.997825,229.000671 
z"/>
<path fill="#F4F6F7" opacity="1.000000" stroke="none" 
	d="
M85.320969,139.837677 
	C81.709709,134.990723 83.152657,126.465355 88.100830,123.225784 
	C89.132423,125.227951 90.871071,127.714073 90.385208,129.638596 
	C89.496323,133.159454 87.292587,136.348373 85.320969,139.837677 
z"/>
<path fill="#F4F6F7" opacity="1.000000" stroke="none" 
	d="
M11.196941,233.879120 
	C25.037039,233.709122 39.061443,233.723633 53.542709,234.191650 
	C53.999496,235.096344 53.999424,235.547562 53.999355,235.998764 
	C40.312119,235.999008 26.624880,235.999252 12.469031,235.998825 
	C11.794031,235.353333 11.587641,234.708481 11.196941,233.879120 
z"/>
<path fill="#FCF9EB" opacity="1.000000" stroke="none" 
	d="
M150.018951,11.375680 
	C155.004913,14.247703 154.111481,19.635948 154.762054,24.387314 
	C155.234543,27.838152 152.922104,29.427191 149.533966,30.278734 
	C146.853317,25.600458 147.639359,22.954662 152.537109,19.561808 
	C151.709290,17.002956 150.860260,14.378589 150.018951,11.375680 
z"/>
<path fill="#F4F6F7" opacity="1.000000" stroke="none" 
	d="
M109.694794,155.156540 
	C108.971230,159.670624 108.613365,164.656525 106.668991,168.918655 
	C104.981056,172.618668 101.497276,175.499420 98.529343,178.918015 
	C98.535355,177.583511 98.285095,175.380066 99.193390,174.680222 
	C103.670166,171.230865 104.648506,166.262253 106.042084,161.311386 
	C106.644974,159.169571 108.231674,157.304688 109.694794,155.156540 
z"/>
<path fill="#FBF0CA" opacity="1.000000" stroke="none" 
	d="
M165.914520,197.025330 
	C165.905167,197.756836 165.895813,198.488342 165.623352,199.867096 
	C164.907349,205.408813 164.464874,210.304276 163.997986,215.197418 
	C163.668350,218.651993 164.814682,221.344574 167.948395,223.046631 
	C167.948395,223.046631 167.991287,223.003418 167.969513,223.339523 
	C168.013351,224.088028 168.078934,224.500412 168.144531,224.912811 
	C162.139374,224.013840 162.587357,218.795883 162.261108,214.924576 
	C161.882751,210.435242 163.036301,205.827896 163.389740,201.261307 
	C163.576767,198.844528 163.381210,196.399384 163.536865,193.978531 
	C163.662216,192.029099 164.055618,190.096878 164.711273,188.535095 
	C165.366501,191.617233 165.640518,194.321274 165.914520,197.025330 
z"/>
<path fill="#DEAD5A" opacity="1.000000" stroke="none" 
	d="
M167.629395,58.280350 
	C167.834930,51.554802 172.798691,54.393890 175.813187,53.338070 
	C176.225967,53.667908 176.638748,53.997749 177.051529,54.327587 
	C175.386230,56.919563 173.720947,59.511539 172.055649,62.103516 
	C170.625366,60.938309 169.195068,59.773102 167.629395,58.280350 
z"/>
<path fill="#E5A745" opacity="1.000000" stroke="none" 
	d="
M203.397919,48.982574 
	C202.992462,48.540909 202.997513,48.107746 203.003021,47.349556 
	C203.167877,46.963547 203.332306,46.902573 204.189941,46.878098 
	C207.586548,46.830517 210.289963,46.746433 212.993378,46.662354 
	C213.436081,46.663410 213.878799,46.664467 214.848236,46.637276 
	C215.717041,46.503677 215.840363,46.278378 215.744919,45.933125 
	C215.744919,45.933125 215.960419,45.491779 216.087006,45.121208 
	C216.213577,44.750637 216.225006,44.416084 216.225006,44.416084 
	C217.874069,44.290222 219.523132,44.164360 221.576202,43.937111 
	C227.584564,43.950874 233.188904,44.066029 239.151947,44.437153 
	C233.926346,45.119652 228.341949,45.544426 222.757935,45.974384 
	C221.773514,46.050186 220.538010,45.797668 219.850098,46.294472 
	C216.520309,48.699242 213.001938,48.834568 209.110245,48.125237 
	C207.450714,47.822758 205.582047,48.667610 203.397919,48.982574 
z"/>
<path fill="#FCF9EB" opacity="1.000000" stroke="none" 
	d="
M149.106598,38.272911 
	C152.294983,37.331646 155.559082,36.924713 158.714584,36.101452 
	C159.681519,35.849178 160.430450,34.514984 161.134949,33.568825 
	C161.920654,32.513603 162.542068,31.336056 163.235001,30.211758 
	C163.942535,31.305197 164.706451,32.367565 165.333603,33.505322 
	C165.642273,34.065296 165.697861,34.764782 165.913528,35.794800 
	C165.293884,36.620003 164.677155,37.299599 163.955200,37.440681 
	C160.609589,38.094482 157.248825,38.726852 153.864044,39.099079 
	C152.324738,39.268356 150.717163,38.816956 149.106598,38.272911 
z"/>
<path fill="#E5AF58" opacity="1.000000" stroke="none" 
	d="
M156.639374,141.681046 
	C158.642029,145.048309 160.530594,148.846085 162.687836,152.484543 
	C163.869934,154.478256 165.735092,156.073395 166.871872,158.085739 
	C167.997284,160.077896 168.594193,162.368607 168.984268,164.764954 
	C168.379501,164.984787 168.213394,164.968002 168.047272,164.951218 
	C168.047272,164.951218 167.998642,164.996063 168.023499,164.593689 
	C168.094330,160.828262 166.460846,159.038528 163.078979,158.886642 
	C162.061218,156.505157 161.043457,154.123657 159.920059,151.044754 
	C158.947586,148.536926 158.080750,146.726532 157.213913,144.916122 
	C157.021744,143.959106 156.829559,143.002106 156.639374,141.681046 
z"/>
<path fill="#E5AF58" opacity="1.000000" stroke="none" 
	d="
M144.077621,119.952309 
	C147.049469,123.660034 150.331375,127.168297 152.888229,131.142975 
	C154.706360,133.969284 155.547485,137.424088 156.731308,140.991364 
	C156.637970,141.384354 156.217819,141.480469 155.985809,141.157944 
	C155.205093,140.191132 154.656403,139.546860 154.107697,138.902588 
	C154.107697,138.902588 154.124771,138.970474 154.131073,138.577057 
	C153.193024,136.602905 152.248672,135.022186 151.304321,133.441452 
	C151.253799,133.110428 151.203262,132.779419 151.003571,131.969818 
	C150.592285,131.297577 150.330139,131.103897 150.068008,130.910217 
	C150.068008,130.910217 150.087784,130.990509 150.053070,130.613281 
	C149.093811,128.996552 148.169266,127.757027 147.244720,126.517502 
	C147.244720,126.517502 147.288071,126.224945 147.178085,125.753197 
	C146.071274,123.505066 145.074448,121.728691 144.077621,119.952309 
z"/>
<path fill="#FBF7E4" opacity="1.000000" stroke="none" 
	d="
M143.969696,114.829514 
	C149.147522,110.210503 152.447983,104.857285 151.299164,97.487335 
	C151.198746,96.843216 153.048462,95.895126 154.394989,95.408112 
	C153.084229,101.698517 151.370865,107.669037 149.657501,113.639557 
	C149.657486,113.639549 149.910416,114.017410 149.420868,113.873131 
	C147.277451,114.095741 145.623566,114.462624 143.969696,114.829514 
z"/>
<path fill="#F4F6F7" opacity="1.000000" stroke="none" 
	d="
M80.273849,231.983200 
	C80.553413,232.658386 80.703560,233.025085 80.994003,233.660126 
	C80.076103,234.373581 79.017899,234.818665 77.959702,235.263763 
	C77.951973,234.228561 77.931038,233.193237 77.938858,232.158157 
	C77.968765,228.201492 78.025002,224.244934 78.037338,220.288254 
	C78.045036,217.821030 77.560005,215.078094 81.783798,215.095566 
	C82.138069,215.540558 82.086548,215.954315 81.780182,216.971130 
	C81.089622,220.397308 80.653923,223.220444 80.218216,226.043564 
	C80.175087,226.476730 80.131966,226.909882 80.070496,227.920242 
	C80.101501,228.667587 80.150864,228.837753 80.200226,229.007904 
	C80.181625,229.896835 80.163025,230.785782 80.273849,231.983200 
z"/>
<path fill="#E5AF58" opacity="1.000000" stroke="none" 
	d="
M150.023987,113.628578 
	C151.370865,107.669037 153.084229,101.698517 154.738129,95.344215 
	C154.852936,93.924805 155.027237,92.889175 155.401672,91.302353 
	C155.816010,90.477173 156.030212,90.203178 156.244415,89.929184 
	C156.592987,98.393669 155.171143,106.420654 150.023987,113.628578 
z"/>
<path fill="#E5AF58" opacity="1.000000" stroke="none" 
	d="
M157.905411,83.067482 
	C156.938950,83.812706 155.972488,84.557922 154.676682,85.660690 
	C153.945557,85.956177 153.543762,85.894104 153.141983,85.832039 
	C153.141983,85.832039 153.082031,85.825516 152.956696,85.560997 
	C151.539673,84.563629 150.247986,83.830772 148.956284,83.097916 
	C148.905594,81.605293 148.854904,80.112663 149.268188,78.295975 
	C150.471191,78.003571 151.210220,78.035233 151.949249,78.066895 
	C151.949249,78.066895 152.004501,78.023911 152.122437,78.336609 
	C153.761948,79.501793 155.283493,80.354279 156.805054,81.206764 
	C156.805054,81.206764 156.793976,81.153076 156.910339,81.425720 
	C157.319595,82.154732 157.612503,82.611107 157.905411,83.067482 
z"/>
<path fill="#FBF7E4" opacity="1.000000" stroke="none" 
	d="
M162.972900,85.135925 
	C166.571457,80.741661 168.440582,80.698532 172.488876,85.343613 
	C169.096817,85.564316 166.034866,85.350121 162.972900,85.135925 
z"/>
<path fill="#E5AF58" opacity="1.000000" stroke="none" 
	d="
M162.644989,85.082344 
	C166.034866,85.350121 169.096817,85.564316 172.593781,85.659897 
	C173.460724,85.575073 173.892639,85.608879 174.935028,85.653351 
	C175.971100,85.699066 176.396683,85.734093 176.822281,85.769119 
	C176.822281,85.769119 177.011734,85.993797 177.111481,86.104401 
	C172.381271,89.081856 164.130066,88.346817 159.327499,84.196228 
	C159.718384,83.757370 159.885376,83.724213 160.052353,83.691063 
	C160.807251,84.136963 161.562164,84.582863 162.644989,85.082344 
z"/>
<path fill="#E5AF58" opacity="1.000000" stroke="none" 
	d="
M169.374268,167.885910 
	C168.669968,174.019806 167.965652,180.153687 166.825943,186.633087 
	C166.219238,186.971436 166.047943,186.964264 165.876648,186.957092 
	C165.941360,185.945236 166.006088,184.933365 166.314880,183.327316 
	C166.600891,182.147186 166.642807,181.561264 166.684723,180.975327 
	C166.788803,180.545181 166.892883,180.115036 167.270004,179.127884 
	C167.604431,177.701340 167.665833,176.831818 167.727219,175.962296 
	C167.791748,175.527466 167.856277,175.092621 168.217987,174.053497 
	C168.801529,171.594757 169.087891,169.740341 169.374268,167.885910 
z"/>
<path fill="#F4F6F7" opacity="1.000000" stroke="none" 
	d="
M90.038895,210.003098 
	C89.562096,210.363510 89.085297,210.723923 87.949875,211.156815 
	C86.531647,211.197830 85.772049,211.166382 85.012451,211.134918 
	C86.437645,209.116043 87.862831,207.097168 89.682381,205.454468 
	C90.064133,207.221466 90.051514,208.612274 90.038895,210.003098 
z"/>
<path fill="#E7AF52" opacity="1.000000" stroke="none" 
	d="
M165.726837,187.122482 
	C166.047943,186.964264 166.219238,186.971436 166.646576,186.983582 
	C166.774887,190.147964 166.647186,193.307343 166.217010,196.746033 
	C165.640518,194.321274 165.366501,191.617233 165.098083,188.478882 
	C165.254349,187.787888 165.412140,187.535660 165.726837,187.122482 
z"/>
<path fill="#F4F6F7" opacity="1.000000" stroke="none" 
	d="
M127.691833,152.017242 
	C126.360634,150.332947 125.398392,148.470947 124.360855,146.295364 
	C128.662811,145.924332 130.267426,147.653778 127.691833,152.017242 
z"/>
<path fill="#F4F6F7" opacity="1.000000" stroke="none" 
	d="
M132.852966,163.828217 
	C131.559204,161.714508 130.334015,159.199600 129.096466,156.324554 
	C130.170013,156.056137 131.255905,156.147858 132.318832,156.237640 
	C132.534485,158.809875 132.728012,161.118454 132.852966,163.828217 
z"/>
<path fill="#E7AF52" opacity="1.000000" stroke="none" 
	d="
M168.342957,225.034210 
	C168.078934,224.500412 168.013351,224.088028 167.945282,223.362274 
	C170.251450,224.834671 172.560089,226.620422 174.534088,228.756287 
	C173.483627,229.049286 172.767853,228.992157 172.052063,228.935013 
	C172.052063,228.935013 171.996704,228.989304 171.902069,228.681641 
	C170.885849,227.558670 169.964264,226.743362 169.042694,225.928055 
	C168.952789,225.620453 168.785675,225.362976 168.342957,225.034210 
z"/>
<path fill="#F9FDFA" opacity="1.000000" stroke="none" 
	d="
M54.056877,236.344421 
	C53.999424,235.547562 53.999496,235.096344 53.999237,234.306717 
	C55.395523,233.894470 56.792145,233.820648 58.594250,233.863983 
	C58.659920,237.208115 57.479733,238.919479 54.056877,236.344421 
z"/>
<path fill="#464B72" opacity="1.000000" stroke="none" 
	d="
M84.784561,211.349030 
	C85.772049,211.166382 86.531647,211.197830 87.667816,211.288361 
	C86.558006,212.544235 85.071632,213.741058 83.177673,214.712769 
	C82.770081,214.487656 82.687668,214.034134 82.687668,214.034134 
	C83.310669,213.210464 83.933670,212.386795 84.784561,211.349030 
z"/>
<path fill="#F4F6F7" opacity="1.000000" stroke="none" 
	d="
M137.838898,167.877747 
	C136.120255,167.153305 134.458298,166.034409 132.766861,164.555817 
	C135.252884,164.042587 137.705505,163.987793 137.838898,167.877747 
z"/>
<path fill="#E5AF58" opacity="1.000000" stroke="none" 
	d="
M143.833008,114.951996 
	C145.623566,114.462624 147.277451,114.095741 149.286224,113.689301 
	C147.690781,115.077568 145.740433,116.505379 143.443924,117.973419 
	C143.097778,118.013649 142.825363,118.134796 142.819504,117.767853 
	C142.988922,116.654121 143.164200,115.907326 143.339478,115.160522 
	C143.339478,115.160522 143.696335,115.074493 143.833008,114.951996 
z"/>
<path fill="#FAEFC9" opacity="1.000000" stroke="none" 
	d="
M163.098511,159.251251 
	C166.460846,159.038528 168.094330,160.828262 168.049057,164.574432 
	C166.405853,163.176987 164.761948,161.396423 163.098511,159.251251 
z"/>
<path fill="#FBF7E4" opacity="1.000000" stroke="none" 
	d="
M153.094574,86.223480 
	C153.543762,85.894104 153.945557,85.956177 154.653381,86.034943 
	C154.959412,86.051651 154.968277,86.019806 155.022522,86.270508 
	C155.255264,86.836464 155.524658,87.013000 155.884979,87.050827 
	C155.983047,87.769318 156.081116,88.487808 156.211807,89.567741 
	C156.030212,90.203178 155.816010,90.477173 155.393600,90.907211 
	C154.472656,89.580475 153.759918,88.097702 153.094574,86.223480 
z"/>
<path fill="#FBF7E4" opacity="1.000000" stroke="none" 
	d="
M156.918884,145.106079 
	C158.080750,146.726532 158.947586,148.536926 159.794617,150.691284 
	C158.724487,149.122162 157.674179,147.209106 156.918884,145.106079 
z"/>
<path fill="#FBF7E4" opacity="1.000000" stroke="none" 
	d="
M143.838928,119.885056 
	C145.074448,121.728691 146.071274,123.505066 147.104095,125.625160 
	C145.768875,124.159203 144.397659,122.349533 143.067047,120.149902 
	C143.107635,119.759949 143.600220,119.817802 143.838928,119.885056 
z"/>
<path fill="#FAEFC9" opacity="1.000000" stroke="none" 
	d="
M169.317230,167.531372 
	C169.087891,169.740341 168.801529,171.594757 168.236755,173.724121 
	C167.965546,171.263092 167.972748,168.527161 168.013611,165.371216 
	C168.213394,164.968002 168.379501,164.984787 168.795792,165.018494 
	C169.117371,165.749222 169.188782,166.463028 169.317230,167.531372 
z"/>
<path fill="#FBF0CA" opacity="1.000000" stroke="none" 
	d="
M172.072205,229.297363 
	C172.767853,228.992157 173.483627,229.049286 174.558273,229.096741 
	C174.917130,229.087067 174.936584,229.063248 175.089539,229.311707 
	C175.832535,230.012482 176.422562,230.464798 177.012604,230.917114 
	C174.782135,232.808151 173.180756,232.237595 172.072205,229.297363 
z"/>
<path fill="#FCF9EB" opacity="1.000000" stroke="none" 
	d="
M148.438141,32.079224 
	C148.907623,33.684132 149.026947,35.382034 149.125214,37.504036 
	C145.430634,36.598236 146.833374,34.372150 148.438141,32.079224 
z"/>
<path fill="#FBF7E4" opacity="1.000000" stroke="none" 
	d="
M184.769379,67.089890 
	C184.373779,69.047020 183.578903,71.016403 182.510330,73.225067 
	C182.947784,71.343605 183.658936,69.222878 184.769379,67.089890 
z"/>
<path fill="#464B72" opacity="1.000000" stroke="none" 
	d="
M90.306305,209.730286 
	C90.051514,208.612274 90.064133,207.221466 90.029785,205.414734 
	C90.392250,203.637558 90.801674,202.276276 91.452629,200.646347 
	C91.320686,203.404282 90.947205,206.430893 90.306305,209.730286 
z"/>
<path fill="#F4F6F7" opacity="1.000000" stroke="none" 
	d="
M95.294968,187.080750 
	C95.633354,188.953217 95.642784,190.921463 95.389687,193.106033 
	C95.073448,191.273758 95.019730,189.225143 95.294968,187.080750 
z"/>
<path fill="#FBF7E4" opacity="1.000000" stroke="none" 
	d="
M156.861282,80.799118 
	C155.283493,80.354279 153.761948,79.501793 152.093506,78.351700 
	C153.802765,78.409622 156.644302,76.669518 156.861282,80.799118 
z"/>
<path fill="#FCF9EB" opacity="1.000000" stroke="none" 
	d="
M215.933273,37.053322 
	C215.933273,37.053322 216.092560,37.424080 216.077789,37.912544 
	C216.042603,38.604393 216.022186,38.807777 216.001785,39.011162 
	C214.689758,38.625774 213.377731,38.240387 212.402725,37.469498 
	C213.804260,37.073765 214.868759,37.063545 215.933273,37.053322 
z"/>
<path fill="#FBF7E4" opacity="1.000000" stroke="none" 
	d="
M186.615601,56.044632 
	C187.591095,57.117634 188.235703,58.245049 188.849655,59.702560 
	C187.319458,59.143318 183.390259,59.819317 186.615601,56.044632 
z"/>
<path fill="#F4F6F7" opacity="1.000000" stroke="none" 
	d="
M86.202255,74.959488 
	C86.648865,73.676537 87.459747,72.364532 88.637726,71.065620 
	C88.192062,72.362617 87.379288,73.646530 86.202255,74.959488 
z"/>
<path fill="#FBF7E4" opacity="1.000000" stroke="none" 
	d="
M151.234894,133.844421 
	C152.248672,135.022186 153.193024,136.602905 154.134766,138.540436 
	C153.143265,137.347290 152.154358,135.797333 151.234894,133.844421 
z"/>
<path fill="#F4F6F7" opacity="1.000000" stroke="none" 
	d="
M70.998436,195.878647 
	C71.161072,193.999390 71.718987,191.972839 72.536453,189.643677 
	C72.328583,191.471161 71.861153,193.601257 70.998436,195.878647 
z"/>
<path fill="#FBF7E4" opacity="1.000000" stroke="none" 
	d="
M147.175537,126.921722 
	C148.169266,127.757027 149.093811,128.996552 150.062195,130.572922 
	C149.106140,129.715164 148.106232,128.520554 147.175537,126.921722 
z"/>
<path fill="#FBEECA" opacity="1.000000" stroke="none" 
	d="
M212.677338,46.444969 
	C210.289963,46.746433 207.586548,46.830517 204.443680,46.808777 
	C206.789917,46.544498 209.575623,46.386044 212.677338,46.444969 
z"/>
<path fill="#FBF7E4" opacity="1.000000" stroke="none" 
	d="
M180.721298,77.077103 
	C180.571365,78.559097 180.078186,80.069305 179.332245,81.803589 
	C179.512344,80.386871 179.945206,78.746086 180.721298,77.077103 
z"/>
<path fill="#F4F6F7" opacity="1.000000" stroke="none" 
	d="
M144.118469,233.929428 
	C143.972885,233.080383 144.185684,232.259216 144.591187,231.185059 
	C145.407242,231.557983 146.030609,232.183914 146.653961,232.809845 
	C145.928253,233.192322 145.202545,233.574814 144.118469,233.929428 
z"/>
<path fill="#F4F6F7" opacity="1.000000" stroke="none" 
	d="
M113.638107,146.018646 
	C113.250031,147.320877 112.462364,148.627075 111.396530,150.111404 
	C111.825081,148.867233 112.531807,147.444916 113.638107,146.018646 
z"/>
<path fill="#FBF7E4" opacity="1.000000" stroke="none" 
	d="
M148.975464,83.477783 
	C150.247986,83.830772 151.539673,84.563629 152.978973,85.581085 
	C151.749252,85.196342 150.371948,84.526993 148.975464,83.477783 
z"/>
<path fill="#E7AF52" opacity="1.000000" stroke="none" 
	d="
M177.315338,230.962906 
	C176.422562,230.464798 175.832535,230.012482 175.094635,229.315247 
	C176.398300,229.613678 177.849838,230.157013 179.064651,230.884079 
	C178.424637,231.048111 178.021362,231.028397 177.315338,230.962906 
z"/>
<path fill="#F4F6F7" opacity="1.000000" stroke="none" 
	d="
M137.276672,234.367828 
	C138.726486,234.051834 140.434860,233.988403 142.565735,233.998260 
	C141.170547,234.254501 139.352890,234.437454 137.276672,234.367828 
z"/>
<path fill="#FBF0CA" opacity="1.000000" stroke="none" 
	d="
M169.025269,226.306793 
	C169.964264,226.743362 170.885849,227.558670 171.931152,228.658737 
	C171.039185,228.190826 170.023514,227.438171 169.025269,226.306793 
z"/>
<path fill="#FBF7E4" opacity="1.000000" stroke="none" 
	d="
M142.992538,115.137817 
	C143.164200,115.907326 142.988922,116.654121 142.670746,117.758408 
	C142.567093,117.115639 142.606339,116.115372 142.992538,115.137817 
z"/>
<path fill="#F4F6F7" opacity="1.000000" stroke="none" 
	d="
M95.794937,70.099899 
	C95.552979,69.659355 95.607185,69.172951 95.603668,68.323471 
	C96.237801,68.217422 96.929642,68.474449 97.621483,68.731476 
	C97.111359,69.172333 96.601234,69.613182 95.794937,70.099899 
z"/>
<path fill="#FBF7E4" opacity="1.000000" stroke="none" 
	d="
M151.925888,77.726028 
	C151.210220,78.035233 150.471191,78.003571 149.361435,77.967621 
	C149.550323,75.700676 150.500320,75.404198 151.925888,77.726028 
z"/>
<path fill="#FBF7E4" opacity="1.000000" stroke="none" 
	d="
M160.029282,83.336517 
	C159.885376,83.724213 159.718384,83.757370 159.298874,83.829308 
	C158.898758,83.566750 158.672745,83.345535 158.136856,83.135963 
	C157.612503,82.611107 157.319595,82.154732 156.929596,81.443909 
	C157.890411,81.786972 158.948318,82.384468 160.029282,83.336517 
z"/>
<path fill="#FAEFC9" opacity="1.000000" stroke="none" 
	d="
M167.490936,176.127991 
	C167.665833,176.831818 167.604431,177.701340 167.298889,178.796967 
	C167.121384,178.113266 167.188019,177.203476 167.490936,176.127991 
z"/>
<path fill="#FBF7E4" opacity="1.000000" stroke="none" 
	d="
M154.065277,139.217529 
	C154.656403,139.546860 155.205093,140.191132 155.770599,141.169037 
	C155.199219,140.845917 154.611038,140.189194 154.065277,139.217529 
z"/>
<path fill="#F4F6F7" opacity="1.000000" stroke="none" 
	d="
M119.052841,34.556679 
	C119.492012,33.954487 119.991226,33.646637 120.749084,33.190048 
	C120.376114,33.644543 119.744499,34.247784 119.052841,34.556679 
z"/>
<path fill="#FBF7E4" opacity="1.000000" stroke="none" 
	d="
M176.998962,85.563126 
	C176.396683,85.734093 175.971100,85.699066 175.245361,85.548721 
	C175.755035,84.952744 176.564850,84.472076 177.695801,83.999588 
	C177.736511,84.457558 177.456070,84.907349 176.998962,85.563126 
z"/>
<path fill="#F4F6F7" opacity="1.000000" stroke="none" 
	d="
M116.836731,141.850250 
	C116.595428,142.779312 116.146744,143.450104 115.427818,144.265121 
	C115.648170,143.470230 116.138763,142.531113 116.836731,141.850250 
z"/>
<path fill="#FBF7E4" opacity="1.000000" stroke="none" 
	d="
M193.533051,47.989819 
	C193.166611,48.678623 192.447083,49.380756 191.402695,50.124947 
	C191.778549,49.445713 192.479263,48.724430 193.533051,47.989819 
z"/>
<path fill="#F4F6F7" opacity="1.000000" stroke="none" 
	d="
M122.001389,142.477798 
	C121.229713,142.590103 120.393860,142.399200 119.288773,142.032318 
	C119.992104,141.962402 120.964653,142.068497 122.001389,142.477798 
z"/>
<path fill="#F8DBA7" opacity="1.000000" stroke="none" 
	d="
M215.734253,36.730534 
	C214.868759,37.063545 213.804260,37.073765 212.341949,37.140579 
	C211.944168,37.197166 211.849335,36.790524 211.812469,36.585938 
	C213.028809,36.390148 214.282028,36.398949 215.734253,36.730534 
z"/>
<path fill="#FCF9EB" opacity="1.000000" stroke="none" 
	d="
M216.079742,44.143108 
	C216.225006,44.416084 216.213577,44.750637 216.102783,44.876141 
	C215.482040,44.597012 214.972076,44.192379 214.462128,43.787746 
	C214.952911,43.815208 215.443710,43.842670 216.079742,44.143108 
z"/>
<path fill="#FBEECA" opacity="1.000000" stroke="none" 
	d="
M198.037704,46.386349 
	C197.640015,46.761730 197.166443,46.864716 196.328674,46.940392 
	C196.630249,46.646709 197.296051,46.380329 198.037704,46.386349 
z"/>
<path fill="#F4F6F7" opacity="1.000000" stroke="none" 
	d="
M147.846008,218.020157 
	C147.443329,217.598755 147.316467,217.062256 147.266022,216.254517 
	C147.602234,216.623871 147.862015,217.264465 147.846008,218.020157 
z"/>
<path fill="#F4F6F7" opacity="1.000000" stroke="none" 
	d="
M97.533310,180.023712 
	C97.632423,180.516418 97.458038,181.042450 97.080688,181.766449 
	C97.005089,181.328613 97.132454,180.692810 97.533310,180.023712 
z"/>
<path fill="#F4F6F7" opacity="1.000000" stroke="none" 
	d="
M91.981964,70.924438 
	C92.529243,70.702881 93.431038,70.532669 94.681679,70.396614 
	C94.132507,70.612442 93.234489,70.794113 91.981964,70.924438 
z"/>
<path fill="#FBF0CA" opacity="1.000000" stroke="none" 
	d="
M180.626099,231.949005 
	C180.930008,232.182739 180.930161,232.356812 180.916595,232.791748 
	C180.358032,232.817520 179.813232,232.582413 179.184479,232.048126 
	C179.507812,231.795731 179.915085,231.842545 180.626099,231.949005 
z"/>
<path fill="#F8DBA7" opacity="1.000000" stroke="none" 
	d="
M216.344147,39.031300 
	C216.022186,38.807777 216.042603,38.604393 216.141830,38.103867 
	C216.588394,37.836048 216.956146,37.865364 217.600098,37.906445 
	C217.917786,38.099422 217.959274,38.280636 218.029770,38.739372 
	C217.601349,39.028408 217.143921,39.039921 216.344147,39.031300 
z"/>
<path fill="#E7AF52" opacity="1.000000" stroke="none" 
	d="
M181.981049,233.335632 
	C182.350769,233.158875 182.915817,233.217560 183.694351,233.463577 
	C183.330688,233.624298 182.753540,233.597702 181.981049,233.335632 
z"/>
<path fill="#FAEFC9" opacity="1.000000" stroke="none" 
	d="
M166.483231,181.193665 
	C166.642807,181.561264 166.600891,182.147186 166.342468,182.947266 
	C166.177887,182.578262 166.229813,181.995132 166.483231,181.193665 
z"/>
<path fill="#FBF7E4" opacity="1.000000" stroke="none" 
	d="
M181.692505,75.177429 
	C181.806458,75.573746 181.678940,76.145088 181.301620,76.883331 
	C181.184891,76.484306 181.317963,75.918388 181.692505,75.177429 
z"/>
<path fill="#FBF0CA" opacity="1.000000" stroke="none" 
	d="
M250.071686,234.278625 
	C250.143860,234.064865 250.315582,234.012436 250.751770,234.011307 
	C250.734589,234.188400 250.452911,234.314178 250.071686,234.278625 
z"/>
<path fill="#F4F6F7" opacity="1.000000" stroke="none" 
	d="
M138.839828,168.671066 
	C138.654175,168.815506 138.316483,168.758148 137.858551,168.459229 
	C138.054810,168.301529 138.371292,168.385406 138.839828,168.671066 
z"/>
<path fill="#FBF7E4" opacity="1.000000" stroke="none" 
	d="
M150.127808,131.146820 
	C150.330139,131.103897 150.592285,131.297577 150.885742,131.745270 
	C150.592056,131.890961 150.348892,131.685669 150.127808,131.146820 
z"/>
<path fill="#F4F6F7" opacity="1.000000" stroke="none" 
	d="
M129.012329,155.725677 
	C128.782349,155.842072 128.613144,155.699646 128.579712,155.275696 
	C128.787338,155.228256 128.906555,155.385818 129.012329,155.725677 
z"/>
<path fill="#FBF0CA" opacity="1.000000" stroke="none" 
	d="
M253.057571,231.894348 
	C253.278030,231.883591 253.529343,232.190369 253.895905,232.769348 
	C253.703598,232.764984 253.396027,232.488434 253.057571,231.894348 
z"/>
<path fill="#F4F6F7" opacity="1.000000" stroke="none" 
	d="
M88.398880,120.873764 
	C88.193695,120.822388 88.120193,120.667252 88.101151,120.260452 
	C88.280594,120.262527 88.405586,120.516266 88.398880,120.873764 
z"/>
<path fill="#F4F6F7" opacity="1.000000" stroke="none" 
	d="
M145.324097,228.762344 
	C145.138229,228.570038 145.181335,228.154312 145.453308,227.514404 
	C145.639130,227.706451 145.596115,228.122681 145.324097,228.762344 
z"/>
<path fill="#FBEECA" opacity="1.000000" stroke="none" 
	d="
M215.588379,45.984505 
	C215.840363,46.278378 215.717041,46.503677 215.169312,46.547554 
	C215.071487,46.285839 215.227554,46.135773 215.588379,45.984505 
z"/>
<path fill="#F4F6F7" opacity="1.000000" stroke="none" 
	d="
M85.463837,76.764908 
	C85.295723,76.589821 85.322403,76.207314 85.580025,75.634590 
	C85.760185,75.815414 85.709412,76.186455 85.463837,76.764908 
z"/>
<path fill="#F4F6F7" opacity="1.000000" stroke="none" 
	d="
M82.514038,214.183624 
	C82.687668,214.034134 82.770081,214.487656 82.817909,214.713089 
	C82.865738,214.938522 82.522514,215.117630 82.334366,215.162659 
	C82.082298,214.887558 82.147034,214.596039 82.514038,214.183624 
z"/>
<path fill="#14183C" opacity="1.000000" stroke="none" 
	d="
M12.005610,228.531982 
	C11.997825,229.000671 11.534412,229.001419 11.302711,229.000275 
	C11.003663,199.527023 10.901397,170.054962 10.877314,140.582840 
	C10.842883,98.447205 10.863139,56.311516 10.875619,14.175859 
	C10.876010,12.855367 11.048333,11.534926 11.577859,10.357560 
	C12.025169,10.680501 12.035126,10.860343 12.045081,11.040185 
	C12.034518,83.381218 12.023956,155.722260 12.005610,228.531982 
z"/>
<path fill="#FAFDF5" opacity="1.000000" stroke="none" 
	d="
M231.910126,7.628553 
	C206.978806,8.029849 181.958923,8.031586 156.470490,8.030991 
	C157.118042,7.353090 158.231262,6.093556 159.350677,6.088041 
	C182.510254,5.973934 205.670593,5.987107 228.830536,6.054490 
	C229.828674,6.057394 230.824600,6.820183 231.910126,7.628553 
z"/>
<path fill="#242850" opacity="1.000000" stroke="none" 
	d="
M12.509089,11.026940 
	C12.035126,10.860343 12.025169,10.680501 12.010417,10.230527 
	C28.639706,9.875470 45.273701,9.758657 61.907898,9.713692 
	C82.710045,9.657458 103.512360,9.660293 124.755707,9.932440 
	C125.177971,10.502904 125.159126,10.778556 125.140274,11.054209 
	C125.140274,11.054209 125.047798,11.044076 124.752937,11.208288 
	C123.754364,12.184869 123.050652,12.997235 122.346931,13.809601 
	C121.861130,10.342674 119.176460,11.020344 116.945099,11.018232 
	C92.784943,10.995372 68.624748,11.001676 44.464565,11.002712 
	C33.967407,11.003163 23.470251,11.009845 12.509089,11.026940 
z"/>
<path fill="#FBF0CA" opacity="1.000000" stroke="none" 
	d="
M253.339920,70.705963 
	C252.982742,61.979607 252.910645,52.949829 252.922424,43.456612 
	C253.338593,44.085411 253.670868,45.177647 254.017731,46.635674 
	C253.896530,54.801819 253.760757,62.602180 253.339920,70.705963 
z"/>
<path fill="#F4F6F7" opacity="1.000000" stroke="none" 
	d="
M120.581085,28.928207 
	C120.616310,24.783140 120.971954,20.563246 121.618385,16.110876 
	C121.573280,20.203394 121.237389,24.528387 120.581085,28.928207 
z"/>
<path fill="#FBF0CA" opacity="1.000000" stroke="none" 
	d="
M253.306580,33.708519 
	C252.971191,26.642324 252.929504,19.279387 252.956177,11.450430 
	C253.537628,11.311315 254.507019,11.653178 254.496872,11.962925 
	C254.262390,19.114653 253.921432,26.262886 253.306580,33.708519 
z"/>
<path fill="#F4F6F7" opacity="1.000000" stroke="none" 
	d="
M122.281647,14.074618 
	C123.050652,12.997235 123.754364,12.184869 124.757812,11.254545 
	C124.243530,12.722583 123.429497,14.308576 122.244965,15.909227 
	C121.988419,15.395803 122.102386,14.867719 122.281647,14.074618 
z"/>
<path fill="#F4F6F7" opacity="1.000000" stroke="none" 
	d="
M125.400894,11.013214 
	C125.159126,10.778556 125.177971,10.502904 125.226685,9.813854 
	C125.695618,9.452785 126.134674,9.505110 126.573738,9.557436 
	C126.269661,10.029030 125.965591,10.500625 125.400894,11.013214 
z"/>
<path fill="#FBF0CA" opacity="1.000000" stroke="none" 
	d="
M253.292023,229.023987 
	C252.993454,228.848526 252.950638,228.675583 252.971680,228.243011 
	C253.364853,228.089508 253.625900,228.286270 253.938904,228.792572 
	C253.888687,229.016510 253.718231,229.021515 253.292023,229.023987 
z"/>
<path fill="#F29C22" opacity="1.000000" stroke="none" 
	d="
M155.413574,13.053158 
	C156.774658,12.330890 158.549011,11.085361 160.328384,11.078141 
	C189.575775,10.959492 218.823807,10.996905 248.541443,11.012644 
	C247.868973,12.016355 246.731461,13.865127 245.583801,13.871459 
	C216.952774,14.029423 188.320679,14.004485 159.688858,13.953514 
	C158.401794,13.951222 157.115707,13.401054 155.413574,13.053158 
z"/>
<path fill="#E5A745" opacity="1.000000" stroke="none" 
	d="
M226.928131,40.457680 
	C226.336838,40.142475 225.745544,39.827271 225.012634,39.035744 
	C224.871033,38.559422 224.914764,38.085148 224.988312,38.014481 
	C225.061859,37.943817 225.212204,37.805927 225.212204,37.805923 
	C230.873001,37.891441 236.540833,37.838882 242.191284,38.127186 
	C244.613846,38.250786 247.814438,37.937481 247.955353,41.799335 
	C248.071976,44.994946 246.464264,46.241035 243.118744,45.095428 
	C243.037064,44.490185 243.262009,44.296589 244.097015,44.151978 
	C245.003265,43.710503 245.391815,43.327354 245.780350,42.944202 
	C245.817886,42.510006 245.855438,42.075813 245.811035,41.106369 
	C245.566452,40.264610 245.318756,40.160828 244.985992,40.259777 
	C240.317429,40.274197 235.648880,40.288616 230.142975,40.265266 
	C228.513138,40.304222 227.720642,40.380951 226.928131,40.457680 
z"/>
<path fill="#E7AF52" opacity="1.000000" stroke="none" 
	d="
M167.970642,222.652039 
	C164.814682,221.344574 163.668350,218.651993 163.997986,215.197418 
	C164.464874,210.304276 164.907349,205.408813 165.620255,200.232880 
	C165.930588,201.122818 166.285889,202.380981 165.981354,203.451401 
	C164.113235,210.017349 165.063492,216.231018 167.970642,222.652039 
z"/>
<path fill="#E5A745" opacity="1.000000" stroke="none" 
	d="
M223.988907,38.277054 
	C223.669296,38.129456 223.349670,37.981857 222.663086,37.496323 
	C222.113724,36.778725 221.931335,36.399067 221.748962,36.019409 
	C221.756134,35.586586 221.763290,35.153763 221.793442,34.016968 
	C221.833984,32.249561 221.851532,31.186132 221.869080,30.122704 
	C221.869080,30.122704 222.009979,29.986607 222.080811,29.916748 
	C223.090744,32.259125 224.029861,34.671356 225.090591,37.444759 
	C225.212204,37.805927 225.061859,37.943817 224.750717,38.031651 
	C224.439575,38.119484 223.988907,38.277058 223.988907,38.277054 
z"/>
<path fill="#F19C22" opacity="1.000000" stroke="none" 
	d="
M169.020798,34.505302 
	C168.044373,33.182640 167.058319,31.470678 166.017456,29.390106 
	C169.419922,29.258909 168.944260,31.849798 169.020798,34.505302 
z"/>
<path fill="#F19C22" opacity="1.000000" stroke="none" 
	d="
M213.961090,33.724892 
	C213.530380,34.345638 213.055756,34.650593 212.282593,34.955742 
	C212.162262,34.172096 212.340439,33.388256 212.518631,32.604412 
	C212.984818,32.872643 213.450989,33.140873 213.961090,33.724892 
z"/>
<path fill="#E5AF58" opacity="1.000000" stroke="none" 
	d="
M156.076691,86.920715 
	C155.524658,87.013000 155.255264,86.836464 155.014297,86.279877 
	C155.390686,86.289223 155.829544,86.539917 156.076691,86.920715 
z"/>
<path fill="#464B72" opacity="1.000000" stroke="none" 
	d="
M80.564674,225.929321 
	C80.653923,223.220444 81.089622,220.397308 81.761742,217.285919 
	C81.635818,219.936798 81.273476,222.875931 80.564674,225.929321 
z"/>
<path fill="#464B72" opacity="1.000000" stroke="none" 
	d="
M80.345757,228.911621 
	C80.150864,228.837753 80.101501,228.667587 80.128510,228.242798 
	C80.348412,228.158569 80.513077,228.316772 80.622810,228.506714 
	C80.656403,228.564865 80.539352,228.710037 80.345757,228.911621 
z"/>
<path fill="#464B72" opacity="1.000000" stroke="none" 
	d="
M143.970154,200.195923 
	C144.238007,200.133850 144.360275,200.299728 144.278458,200.693604 
	C144.037918,200.704254 143.954651,200.538345 143.970154,200.195923 
z"/>
<path fill="#FBEECA" opacity="1.000000" stroke="none" 
	d="
M221.477234,30.031918 
	C221.851532,31.186132 221.833984,32.249561 221.714844,33.701183 
	C220.747787,34.073730 219.882324,34.058083 218.692719,34.062317 
	C218.010559,31.872831 217.358826,29.470760 221.477234,30.031918 
z"/>
<path fill="#FBEECA" opacity="1.000000" stroke="none" 
	d="
M227.016800,40.736790 
	C227.720642,40.380951 228.513138,40.304222 229.689941,40.348831 
	C229.084641,40.652077 228.095062,40.833988 227.016800,40.736790 
z"/>
<path fill="#FBEECA" opacity="1.000000" stroke="none" 
	d="
M221.559753,36.221626 
	C221.931335,36.399067 222.113724,36.778725 222.401245,37.456509 
	C222.127777,37.311035 221.749161,36.867439 221.559753,36.221626 
z"/>
<path fill="#FBEECA" opacity="1.000000" stroke="none" 
	d="
M245.506454,42.981697 
	C245.391815,43.327354 245.003265,43.710503 244.306274,44.059010 
	C244.409393,43.689308 244.820984,43.354248 245.506454,42.981697 
z"/>
<path fill="#FBEECA" opacity="1.000000" stroke="none" 
	d="
M224.069366,38.433647 
	C223.988907,38.277058 224.439575,38.119484 224.677170,38.102318 
	C224.914764,38.085148 224.871033,38.559422 224.788727,38.783226 
	C224.478592,38.924583 224.293045,38.785652 224.069366,38.433647 
z"/>
<path fill="#FBEECA" opacity="1.000000" stroke="none" 
	d="
M245.070724,40.418915 
	C245.318756,40.160828 245.566452,40.264610 245.726685,40.788780 
	C245.491806,40.920563 245.302185,40.777767 245.070724,40.418915 
z"/>
</svg>