<svg version="1.1" id="Layer_1" xmlns="http://www.w3.org/2000/svg" xmlns:xlink="http://www.w3.org/1999/xlink" x="0px" y="0px"
	 width="100%" viewBox="0 0 225 225" enable-background="new 0 0 225 225" xml:space="preserve">
<path fill="#FEFDFE" opacity="1.000000" stroke="none" 
	d="
M156.000000,226.000000 
	C104.000000,226.000000 52.500008,226.000000 1.000007,226.000000 
	C1.000005,151.000000 1.000005,76.000015 1.000002,1.000017 
	C75.999992,1.000011 150.999985,1.000011 225.999969,1.000006 
	C225.999985,75.999985 225.999985,150.999969 226.000000,225.999969 
	C202.833328,226.000000 179.666672,226.000000 156.000000,226.000000 
M21.036417,131.120987 
	C21.271029,131.585541 21.505640,132.050110 22.603827,132.669540 
	C50.987076,132.689850 79.370323,132.714828 107.753571,132.713425 
	C108.891029,132.713364 110.028473,132.463181 111.749954,132.183380 
	C111.905777,131.822617 112.061607,131.461868 112.752335,130.695419 
	C123.858032,112.943947 134.963730,95.192482 146.326675,77.029823 
	C150.654892,84.067497 154.583603,90.455589 158.830002,97.360237 
	C156.949921,97.494133 155.940323,97.398041 155.035110,97.661095 
	C151.969467,98.552017 148.045181,98.710991 146.102722,100.735985 
	C142.997513,103.973099 141.217514,108.481453 138.274323,112.912102 
	C136.079010,116.568466 139.640121,114.905090 140.402771,114.914864 
	C150.267151,115.041336 160.133728,114.997742 170.341034,115.588013 
	C173.353729,120.363426 176.277390,125.199059 179.439926,129.873093 
	C180.259232,131.083969 181.791199,132.539001 183.056152,132.598465 
	C189.105804,132.882919 195.176178,132.726044 202.005692,132.726044 
	C183.360229,103.023102 165.184525,74.068527 146.637314,44.522102 
	C145.165222,46.432888 143.883774,47.855000 142.870651,49.447788 
	C129.674332,70.194572 116.480766,90.943375 103.397087,111.761162 
	C101.918198,114.114250 100.376030,115.134781 97.492378,115.100235 
	C83.665314,114.934578 69.835159,115.035492 56.006180,115.006149 
	C54.976330,115.003967 53.947071,114.722191 52.296154,114.478767 
	C56.436447,108.302711 60.210629,102.672791 64.914207,97.190651 
	C73.222397,97.198349 81.531250,97.261314 89.838188,97.163193 
	C91.347534,97.145363 92.849106,96.468605 94.893547,95.719009 
	C97.906410,90.807312 100.919281,85.895622 103.687439,80.138374 
	C82.195648,80.076500 60.703857,80.003212 39.212044,79.993637 
	C38.333763,79.993240 37.455212,80.592384 36.058212,81.304306 
	C32.874557,86.387840 29.690899,91.471382 25.946653,97.450043 
	C32.000389,97.450043 36.833553,97.450043 42.147549,97.450043 
	C35.477352,108.286804 29.174747,118.526360 22.336576,129.031525 
	C22.098650,129.571274 21.860722,130.111038 21.613592,130.721451 
	C21.613592,130.721451 21.542398,130.718460 21.036417,131.120987 
M146.852097,143.838501 
	C147.159103,152.615036 154.902924,145.704437 158.062195,149.566055 
	C158.062195,156.837189 158.003372,164.651306 158.105728,172.463303 
	C158.129761,174.297089 158.698547,176.123734 159.842468,178.145340 
	C161.587509,177.759674 163.332565,177.374008 165.277267,176.070129 
	C165.201645,167.383713 165.126007,158.697281 165.202042,149.535583 
	C165.202042,149.535583 165.149261,149.039474 165.862076,148.674454 
	C168.260910,148.544296 170.663757,148.260025 173.057602,148.322037 
	C176.221039,148.404007 177.625656,147.188217 177.056107,143.093979 
	C176.109634,142.724625 175.166351,142.044357 174.216202,142.034653 
	C165.960312,141.950287 157.702957,141.958771 149.446823,142.029984 
	C148.641556,142.036926 147.841507,142.651169 146.852097,143.838501 
M80.697426,151.887726 
	C80.778435,158.266281 80.859451,164.644852 80.770897,171.686615 
	C80.871193,172.129059 80.971489,172.571487 80.999634,173.500244 
	C80.999634,173.500244 81.193962,173.951813 81.311218,174.664520 
	C83.509682,175.825424 85.640381,177.797287 87.919937,177.987778 
	C93.648399,178.466522 99.444260,178.163864 105.212814,178.128281 
	C108.720657,178.106644 111.263542,176.767410 112.029343,172.036942 
	C111.945976,163.717194 111.862617,155.397430 111.706062,146.370895 
	C109.851471,141.585907 105.799324,141.849899 101.782043,142.067886 
	C97.081421,142.322937 92.303741,143.238525 87.707855,142.669403 
	C84.178909,142.232407 82.545341,143.261246 81.018837,146.680908 
	C81.019501,147.118896 81.020172,147.556900 80.774773,148.714294 
	C80.819008,149.464676 80.863235,150.215057 80.697426,151.887726 
M49.308411,61.862240 
	C72.844650,61.834141 96.380898,61.806038 120.570297,61.612598 
	C123.426003,56.893078 126.281708,52.173557 129.744156,47.009499 
	C131.772705,42.694550 127.855423,44.896870 127.032166,44.891682 
	C105.566673,44.756443 84.100105,44.764595 62.633976,44.832405 
	C61.284184,44.836666 59.936550,45.526646 58.067154,46.293926 
	C55.067104,51.200958 52.067055,56.107994 49.308411,61.862240 
M119.641914,142.974854 
	C118.423340,143.793533 116.162964,144.589050 116.144173,145.434402 
	C115.904480,156.213409 115.986183,166.999557 115.986183,177.794861 
	C118.847412,177.794861 121.210678,177.794861 123.921722,177.794861 
	C123.921722,173.500656 123.921722,169.589737 123.921722,164.721344 
	C127.679283,168.281052 131.008881,170.997864 133.796204,174.188416 
	C137.160797,178.039749 141.043167,179.072266 147.471695,177.302185 
	C142.596085,173.024231 138.390076,169.333817 134.106110,165.575012 
	C144.509995,163.753036 144.891418,163.288040 144.874985,152.688049 
	C144.873688,151.855301 144.901443,151.021408 144.867645,150.189987 
	C144.666138,145.230148 141.387619,141.900482 136.381302,142.022125 
	C131.116135,142.150070 125.859795,142.642258 119.641914,142.974854 
M28.751076,148.283813 
	C31.895073,148.283813 35.039070,148.283813 38.148785,148.283813 
	C38.487640,149.024704 38.581440,149.553665 38.894230,149.856369 
	C40.100933,151.024094 41.377602,152.119553 42.628185,153.241943 
	C43.470264,151.881516 44.981358,150.547668 45.036606,149.155991 
	C45.255520,143.641617 40.779110,140.899658 34.581295,142.069595 
	C31.385630,142.672836 28.036200,143.035629 24.813267,142.782120 
	C20.287008,142.426117 18.076509,143.774658 17.644230,148.365265 
	C17.461739,150.303223 17.827215,152.290680 17.670206,154.233551 
	C17.182833,160.264359 19.407005,162.856567 25.540674,162.981766 
	C29.960032,163.071991 34.382713,162.999344 38.768135,162.999344 
	C38.768135,166.257172 38.768135,168.732162 38.768135,172.289124 
	C33.928703,172.546219 29.183805,172.798294 24.417633,173.051498 
	C24.210543,170.842590 24.499907,169.239349 23.845888,168.277710 
	C23.197420,167.324219 21.612387,166.596710 20.412125,166.557068 
	C19.417892,166.524246 17.774618,167.421082 17.471920,168.278000 
	C15.787489,173.046417 19.154396,177.863495 24.325195,178.073074 
	C29.145830,178.268478 34.069145,178.650360 38.772118,177.880386 
	C41.120197,177.495941 44.355278,175.067200 44.927319,172.951569 
	C45.919163,169.283340 45.476292,165.094894 44.938068,161.221451 
	C44.764217,159.970306 42.531662,158.346268 41.019112,158.058563 
	C35.591911,157.026230 30.069799,156.492874 24.583752,155.769684 
	C23.650877,148.961304 23.650877,148.961304 28.751076,148.283813 
M179.719086,153.425629 
	C180.055573,161.881088 181.227463,162.990112 189.847839,162.998917 
	C193.459991,163.002609 197.072159,162.999512 200.824554,162.999512 
	C200.824554,166.150070 200.824554,168.754440 200.824554,172.306168 
	C195.574890,172.571518 190.450653,172.830536 185.394806,173.086105 
	C185.026291,170.447144 184.759155,168.534225 184.501236,166.687271 
	C182.248383,166.687271 180.486053,166.687271 178.791229,166.687271 
	C176.840073,174.865814 179.178848,178.060410 186.979797,178.178040 
	C189.475327,178.215668 191.971878,178.184814 194.467972,178.184708 
	C206.757507,178.184189 207.876556,177.029175 207.378830,164.853485 
	C207.358444,164.354935 207.325287,163.856445 207.281494,163.359390 
	C206.816635,158.082184 203.735001,155.869217 198.444321,156.768539 
	C195.705215,157.234131 192.904984,157.340225 190.132278,157.607986 
	C187.100388,157.900772 185.848221,156.423706 186.019775,153.498489 
	C186.113937,151.892883 186.168091,150.284927 186.248703,148.490906 
	C191.045670,148.490906 195.483475,148.490906 199.958206,148.490906 
	C200.246567,149.005539 200.398300,149.508148 200.728531,149.824295 
	C201.956894,151.000305 203.243942,152.115021 204.508972,153.252731 
	C205.343338,151.740341 206.878311,150.231400 206.885773,148.714935 
	C206.912247,143.332352 202.077301,140.831955 195.519409,142.115295 
	C192.511337,142.703964 189.267303,143.079483 186.289719,142.587250 
	C182.306168,141.928680 180.809341,143.934021 180.039108,147.039581 
	C179.607208,148.781052 179.804214,150.678513 179.719086,153.425629 
M49.038063,167.477631 
	C49.038063,170.930069 49.038063,174.382523 49.038063,177.773590 
	C56.103306,178.542633 56.268139,178.398804 56.281822,171.862427 
	C56.286255,169.744644 56.282520,167.626831 56.282520,165.017120 
	C59.338230,165.017120 61.946857,165.017212 64.555481,165.017105 
	C76.542480,165.016617 77.322021,164.247498 77.302391,152.440781 
	C77.287056,143.217911 73.349480,140.427780 64.231270,142.219727 
	C59.384243,143.172272 54.288532,142.859421 49.038074,143.131592 
	C49.038074,150.569122 49.038074,158.525742 49.038063,167.477631 
z"/>
<path fill="#CC232A" opacity="1.000000" stroke="none" 
	d="
M22.872143,128.765915 
	C29.174747,118.526360 35.477352,108.286804 42.147549,97.450043 
	C36.833553,97.450043 32.000389,97.450043 25.946653,97.450043 
	C29.690899,91.471382 32.874557,86.387840 36.814568,81.134155 
	C59.691330,80.970634 81.811745,80.977280 103.932152,80.983925 
	C100.919281,85.895622 97.906410,90.807312 94.132446,95.876038 
	C85.278175,96.021584 77.184296,95.951019 69.092377,96.046341 
	C67.386177,96.066444 65.687141,96.694786 63.984810,97.042862 
	C60.210629,102.672791 56.436447,108.302711 52.296154,114.478767 
	C53.947071,114.722191 54.976330,115.003967 56.006180,115.006149 
	C69.835159,115.035492 83.665314,114.934578 97.492378,115.100235 
	C100.376030,115.134781 101.918198,114.114250 103.397087,111.761162 
	C116.480766,90.943375 129.674332,70.194572 142.870651,49.447788 
	C143.883774,47.855000 145.165222,46.432888 146.637314,44.522102 
	C165.184525,74.068527 183.360229,103.023102 202.005692,132.726044 
	C195.176178,132.726044 189.105804,132.882919 183.056152,132.598465 
	C181.791199,132.539001 180.259232,131.083969 179.439926,129.873093 
	C176.277390,125.199059 173.353729,120.363426 169.883453,114.987411 
	C160.844482,114.256599 152.260696,114.201225 143.683762,113.929832 
	C142.067642,113.878700 140.478729,112.966988 138.877274,112.452377 
	C141.217514,108.481453 142.997513,103.973099 146.102722,100.735985 
	C148.045181,98.710991 151.969467,98.552017 155.035110,97.661095 
	C155.940323,97.398041 156.949921,97.494133 158.830002,97.360237 
	C154.583603,90.455589 150.654892,84.067497 146.326675,77.029823 
	C134.963730,95.192482 123.858032,112.943947 112.230309,131.025833 
	C111.527496,131.680679 111.346710,132.005096 111.165924,132.329529 
	C110.028473,132.463181 108.891029,132.713364 107.753571,132.713425 
	C79.370323,132.714828 50.987076,132.689850 22.147579,132.139496 
	C21.641687,131.312454 21.592043,131.015457 21.542398,130.718460 
	C21.542398,130.718460 21.613592,130.721451 21.931070,130.610825 
	C22.456413,129.922104 22.664278,129.344009 22.872143,128.765915 
z"/>
<path fill="#CC2229" opacity="1.000000" stroke="none" 
	d="
M129.137421,47.454041 
	C126.281708,52.173557 123.426003,56.893078 119.926697,61.439148 
	C95.877731,61.182137 72.472366,61.098583 49.067009,61.015030 
	C52.067055,56.107994 55.067104,51.200958 58.823288,46.128296 
	C80.967064,45.975498 102.354881,45.953629 123.742020,46.063999 
	C125.542831,46.073292 127.339066,46.969746 129.137421,47.454041 
z"/>
<path fill="#2B5DA8" opacity="1.000000" stroke="none" 
	d="
M120.120758,142.975067 
	C125.859795,142.642258 131.116135,142.150070 136.381302,142.022125 
	C141.387619,141.900482 144.666138,145.230148 144.867645,150.189987 
	C144.901443,151.021408 144.873688,151.855301 144.874985,152.688049 
	C144.891418,163.288040 144.509995,163.753036 134.106110,165.575012 
	C138.390076,169.333817 142.596085,173.024231 147.471695,177.302185 
	C141.043167,179.072266 137.160797,178.039749 133.796204,174.188416 
	C131.008881,170.997864 127.679283,168.281052 123.921722,164.721344 
	C123.921722,169.589737 123.921722,173.500656 123.921722,177.794861 
	C121.210678,177.794861 118.847412,177.794861 115.986183,177.794861 
	C115.986183,166.999557 115.904480,156.213409 116.144173,145.434402 
	C116.162964,144.589050 118.423340,143.793533 120.120758,142.975067 
M135.115005,158.826340 
	C135.667175,155.683975 136.219330,152.541626 136.771500,149.399261 
	C132.617844,148.757965 128.464188,148.116669 124.213326,147.460358 
	C124.213326,152.280792 124.213326,155.978745 124.213326,159.915909 
	C127.820122,159.548126 131.024216,159.221405 135.115005,158.826340 
z"/>
<path fill="#2B5CA8" opacity="1.000000" stroke="none" 
	d="
M28.296478,148.284348 
	C23.650877,148.961304 23.650877,148.961304 24.583660,155.770279 
	C30.069799,156.492874 35.591911,157.026230 41.019112,158.058563 
	C42.531662,158.346268 44.764217,159.970306 44.938068,161.221451 
	C45.476292,165.094894 45.919163,169.283340 44.927319,172.951569 
	C44.355278,175.067200 41.120197,177.495941 38.772118,177.880386 
	C34.069145,178.650360 29.145830,178.268478 24.325195,178.073074 
	C19.154396,177.863495 15.787489,173.046417 17.471920,168.278000 
	C17.774618,167.421082 19.417892,166.524246 20.412125,166.557068 
	C21.612387,166.596710 23.197420,167.324219 23.845888,168.277710 
	C24.499907,169.239349 24.210543,170.842590 24.417633,173.051498 
	C29.183805,172.798294 33.928703,172.546219 38.768135,172.289124 
	C38.768135,168.732162 38.768135,166.257172 38.768135,162.999344 
	C34.382713,162.999344 29.960032,163.071991 25.540674,162.981766 
	C19.407005,162.856567 17.182833,160.264359 17.670206,154.233551 
	C17.827215,152.290680 17.461739,150.303223 17.644230,148.365265 
	C18.076509,143.774658 20.287008,142.426117 24.813267,142.782120 
	C28.036200,143.035629 31.385630,142.672836 34.581295,142.069595 
	C40.779110,140.899658 45.255520,143.641617 45.036606,149.155991 
	C44.981358,150.547668 43.470264,151.881516 42.628185,153.241943 
	C41.377602,152.119553 40.100933,151.024094 38.894230,149.856369 
	C38.581440,149.553665 38.487640,149.024704 38.148785,148.283813 
	C35.039070,148.283813 31.895073,148.283813 28.296478,148.284348 
z"/>
<path fill="#2A5CA8" opacity="1.000000" stroke="none" 
	d="
M179.718475,152.965668 
	C179.804214,150.678513 179.607208,148.781052 180.039108,147.039581 
	C180.809341,143.934021 182.306168,141.928680 186.289719,142.587250 
	C189.267303,143.079483 192.511337,142.703964 195.519409,142.115295 
	C202.077301,140.831955 206.912247,143.332352 206.885773,148.714935 
	C206.878311,150.231400 205.343338,151.740341 204.508972,153.252731 
	C203.243942,152.115021 201.956894,151.000305 200.728531,149.824295 
	C200.398300,149.508148 200.246567,149.005539 199.958206,148.490906 
	C195.483475,148.490906 191.045670,148.490906 186.248703,148.490906 
	C186.168091,150.284927 186.113937,151.892883 186.019775,153.498489 
	C185.848221,156.423706 187.100388,157.900772 190.132278,157.607986 
	C192.904984,157.340225 195.705215,157.234131 198.444321,156.768539 
	C203.735001,155.869217 206.816635,158.082184 207.281494,163.359390 
	C207.325287,163.856445 207.358444,164.354935 207.378830,164.853485 
	C207.876556,177.029175 206.757507,178.184189 194.467972,178.184708 
	C191.971878,178.184814 189.475327,178.215668 186.979797,178.178040 
	C179.178848,178.060410 176.840073,174.865814 178.791229,166.687271 
	C180.486053,166.687271 182.248383,166.687271 184.501236,166.687271 
	C184.759155,168.534225 185.026291,170.447144 185.394806,173.086105 
	C190.450653,172.830536 195.574890,172.571518 200.824554,172.306168 
	C200.824554,168.754440 200.824554,166.150070 200.824554,162.999512 
	C197.072159,162.999512 193.459991,163.002609 189.847839,162.998917 
	C181.227463,162.990112 180.055573,161.881088 179.718475,152.965668 
z"/>
<path fill="#2B5DA8" opacity="1.000000" stroke="none" 
	d="
M111.836502,172.950623 
	C111.263542,176.767410 108.720657,178.106644 105.212814,178.128281 
	C99.444260,178.163864 93.648399,178.466522 87.919937,177.987778 
	C85.640381,177.797287 83.509682,175.825424 81.395203,174.207779 
	C81.343384,173.505341 81.207588,173.259628 81.071785,173.013931 
	C80.971489,172.571487 80.871193,172.129059 81.165955,171.069580 
	C81.343170,163.956848 81.125320,157.461151 80.907471,150.965439 
	C80.863235,150.215057 80.819008,149.464676 81.118828,148.237961 
	C81.405922,147.200470 81.348961,146.639313 81.292000,146.078156 
	C82.545341,143.261246 84.178909,142.232407 87.707855,142.669403 
	C92.303741,143.238525 97.081421,142.322937 101.782043,142.067886 
	C105.799324,141.849899 109.851471,141.585907 111.485535,147.041000 
	C111.455505,156.124283 111.646004,164.537445 111.836502,172.950623 
M87.873131,161.488007 
	C87.873131,165.227219 87.873131,168.966431 87.873131,173.176193 
	C94.040932,172.869949 99.361214,172.605789 104.677750,172.341812 
	C104.677750,163.675644 104.677750,155.971481 104.677750,148.310410 
	C98.959496,148.310410 93.566948,148.310410 87.873077,148.310410 
	C87.873077,152.577530 87.873077,156.537659 87.873131,161.488007 
z"/>
<path fill="#2A5CA8" opacity="1.000000" stroke="none" 
	d="
M49.038071,166.979996 
	C49.038074,158.525742 49.038074,150.569122 49.038074,143.131592 
	C54.288532,142.859421 59.384243,143.172272 64.231270,142.219727 
	C73.349480,140.427780 77.287056,143.217911 77.302391,152.440781 
	C77.322021,164.247498 76.542480,165.016617 64.555481,165.017105 
	C61.946857,165.017212 59.338230,165.017120 56.282520,165.017120 
	C56.282520,167.626831 56.286255,169.744644 56.281822,171.862427 
	C56.268139,178.398804 56.103306,178.542633 49.038063,177.773590 
	C49.038063,174.382523 49.038063,170.930069 49.038071,166.979996 
M60.610088,159.930298 
	C62.439510,159.926147 64.297768,160.128906 66.092903,159.878754 
	C71.297577,159.153488 69.827271,155.024094 70.105011,151.755310 
	C70.383377,148.479095 68.597099,147.830704 65.824989,147.948700 
	C62.741100,148.079971 59.647316,147.978760 56.258003,147.978760 
	C56.258003,151.490021 55.932545,154.352097 56.415550,157.070511 
	C56.613331,158.183670 58.558281,158.986374 60.610088,159.930298 
z"/>
<path fill="#2B5DA8" opacity="1.000000" stroke="none" 
	d="
M176.924881,143.967361 
	C177.625656,147.188217 176.221039,148.404007 173.057602,148.322037 
	C170.663757,148.260025 168.260910,148.544296 165.322083,148.929077 
	C164.696060,149.280884 164.523102,149.446609 164.537399,149.464752 
	C164.691406,149.660187 164.874924,149.832336 165.050369,150.010864 
	C165.126007,158.697281 165.201645,167.383713 164.769470,176.524750 
	C162.513351,177.304123 160.765045,177.628906 159.016724,177.953674 
	C158.698547,176.123734 158.129761,174.297089 158.105728,172.463303 
	C158.003372,164.651306 158.062195,156.837189 158.062195,149.566055 
	C154.902924,145.704437 147.159103,152.615036 147.411560,143.418671 
	C152.744598,143.000198 157.522385,142.876663 162.290558,143.037613 
	C167.173569,143.202454 172.047165,143.645889 176.924881,143.967361 
z"/>
<path fill="#CA0312" opacity="1.000000" stroke="none" 
	d="
M129.440796,47.231773 
	C127.339066,46.969746 125.542831,46.073292 123.742020,46.063999 
	C102.354881,45.953629 80.967064,45.975498 59.083672,45.930138 
	C59.936550,45.526646 61.284184,44.836666 62.633976,44.832405 
	C84.100105,44.764595 105.566673,44.756443 127.032166,44.891682 
	C127.855423,44.896870 131.772705,42.694550 129.440796,47.231773 
z"/>
<path fill="#C90101" opacity="1.000000" stroke="none" 
	d="
M49.187710,61.438637 
	C72.472366,61.098583 95.877731,61.182137 119.600113,61.521816 
	C96.380898,61.806038 72.844650,61.834141 49.187710,61.438637 
z"/>
<path fill="#C90000" opacity="1.000000" stroke="none" 
	d="
M103.809799,80.561150 
	C81.811745,80.977280 59.691330,80.970634 37.073853,80.938095 
	C37.455212,80.592384 38.333763,79.993240 39.212044,79.993637 
	C60.703857,80.003212 82.195648,80.076500 103.809799,80.561150 
z"/>
<path fill="#C90101" opacity="1.000000" stroke="none" 
	d="
M138.575806,112.682236 
	C140.478729,112.966988 142.067642,113.878700 143.683762,113.929832 
	C152.260696,114.201225 160.844482,114.256599 169.712814,114.691956 
	C160.133728,114.997742 150.267151,115.041336 140.402771,114.914864 
	C139.640121,114.905090 136.079010,116.568466 138.575806,112.682236 
z"/>
<path fill="#0049A0" opacity="1.000000" stroke="none" 
	d="
M176.990494,143.530670 
	C172.047165,143.645889 167.173569,143.202454 162.290558,143.037613 
	C157.522385,142.876663 152.744598,143.000198 147.505035,142.991180 
	C147.841507,142.651169 148.641556,142.036926 149.446823,142.029984 
	C157.702957,141.958771 165.960312,141.950287 174.216202,142.034653 
	C175.166351,142.044357 176.109634,142.724625 176.990494,143.530670 
z"/>
<path fill="#CA0212" opacity="1.000000" stroke="none" 
	d="
M64.449509,97.116760 
	C65.687141,96.694786 67.386177,96.066444 69.092377,96.046341 
	C77.184296,95.951019 85.278175,96.021584 93.862808,96.064545 
	C92.849106,96.468605 91.347534,97.145363 89.838188,97.163193 
	C81.531250,97.261314 73.222397,97.198349 64.449509,97.116760 
z"/>
<path fill="#0A4EA2" opacity="1.000000" stroke="none" 
	d="
M111.932922,172.493774 
	C111.646004,164.537445 111.455505,156.124283 111.522141,147.394394 
	C111.862617,155.397430 111.945976,163.717194 111.932922,172.493774 
z"/>
<path fill="#1150A3" opacity="1.000000" stroke="none" 
	d="
M80.802444,151.426575 
	C81.125320,157.461151 81.343170,163.956848 81.250748,170.737976 
	C80.859451,164.644852 80.778435,158.266281 80.802444,151.426575 
z"/>
<path fill="#1250A3" opacity="1.000000" stroke="none" 
	d="
M159.429596,178.049500 
	C160.765045,177.628906 162.513351,177.304123 164.669647,176.983856 
	C163.332565,177.374008 161.587509,177.759674 159.429596,178.049500 
z"/>
<path fill="#1150A3" opacity="1.000000" stroke="none" 
	d="
M81.155418,146.379532 
	C81.348961,146.639313 81.405922,147.200470 81.241867,147.878265 
	C81.020172,147.556900 81.019501,147.118896 81.155418,146.379532 
z"/>
<path fill="#D24449" opacity="1.000000" stroke="none" 
	d="
M22.604359,128.898712 
	C22.664278,129.344009 22.456413,129.922104 21.935671,130.575500 
	C21.860722,130.111038 22.098650,129.571274 22.604359,128.898712 
z"/>
<path fill="#D24449" opacity="1.000000" stroke="none" 
	d="
M111.457939,132.256454 
	C111.346710,132.005096 111.527496,131.680679 111.962860,131.228683 
	C112.061607,131.461868 111.905777,131.822617 111.457939,132.256454 
z"/>
<path fill="#D24449" opacity="1.000000" stroke="none" 
	d="
M21.289408,130.919724 
	C21.592043,131.015457 21.641687,131.312454 21.715790,132.062057 
	C21.505640,132.050110 21.271029,131.585541 21.289408,130.919724 
z"/>
<path fill="#1250A3" opacity="1.000000" stroke="none" 
	d="
M165.126205,149.773224 
	C164.874924,149.832336 164.691406,149.660187 164.537399,149.464752 
	C164.523102,149.446609 164.696060,149.280884 164.965668,149.111572 
	C165.149261,149.039474 165.202042,149.535583 165.126205,149.773224 
z"/>
<path fill="#1150A3" opacity="1.000000" stroke="none" 
	d="
M81.035706,173.257080 
	C81.207588,173.259628 81.343384,173.505341 81.336578,173.851425 
	C81.193962,173.951813 80.999634,173.500244 81.035706,173.257080 
z"/>
<path fill="#FBFCFD" opacity="1.000000" stroke="none" 
	d="
M134.671661,158.860504 
	C131.024216,159.221405 127.820122,159.548126 124.213326,159.915909 
	C124.213326,155.978745 124.213326,152.280792 124.213326,147.460358 
	C128.464188,148.116669 132.617844,148.757965 136.771500,149.399261 
	C136.219330,152.541626 135.667175,155.683975 134.671661,158.860504 
z"/>
<path fill="#FDFDFE" opacity="1.000000" stroke="none" 
	d="
M87.873108,160.992905 
	C87.873077,156.537659 87.873077,152.577530 87.873077,148.310410 
	C93.566948,148.310410 98.959496,148.310410 104.677750,148.310410 
	C104.677750,155.971481 104.677750,163.675644 104.677750,172.341812 
	C99.361214,172.605789 94.040932,172.869949 87.873131,173.176193 
	C87.873131,168.966431 87.873131,165.227219 87.873108,160.992905 
z"/>
<path fill="#F4F6FA" opacity="1.000000" stroke="none" 
	d="
M60.159256,159.930298 
	C58.558281,158.986374 56.613331,158.183670 56.415550,157.070511 
	C55.932545,154.352097 56.258003,151.490021 56.258003,147.978760 
	C59.647316,147.978760 62.741100,148.079971 65.824989,147.948700 
	C68.597099,147.830704 70.383377,148.479095 70.105011,151.755310 
	C69.827271,155.024094 71.297577,159.153488 66.092903,159.878754 
	C64.297768,160.128906 62.439510,159.926147 60.159256,159.930298 
z"/>
</svg>