<svg version="1.1" id="Layer_1" xmlns="http://www.w3.org/2000/svg" xmlns:xlink="http://www.w3.org/1999/xlink" x="0px" y="0px"
	 width="100%" viewBox="0 0 512 512" enable-background="new 0 0 512 512" xml:space="preserve">
<path fill="#000000" opacity="1.000000" stroke="none" 
	d="
M338.000000,513.000000 
	C225.360703,513.000000 113.221397,513.000000 1.041047,513.000000 
	C1.041047,342.402344 1.041047,171.804672 1.041047,1.103501 
	C171.555969,1.103501 342.112030,1.103501 512.834045,1.103501 
	C512.834045,171.666534 512.834045,342.333252 512.834045,513.000000 
	C454.804657,513.000000 396.652313,513.000000 338.000000,513.000000 
M305.941986,65.569595 
	C295.306183,59.393738 284.657990,53.239037 274.037872,47.036320 
	C262.535492,40.318302 251.066833,40.275108 239.528946,46.968895 
	C190.794785,75.242355 142.046890,103.492104 93.307854,131.757172 
	C92.270012,132.359055 91.278481,133.040802 89.742409,134.017929 
	C113.914352,148.027634 137.441467,161.663589 160.896271,175.257660 
	C212.664200,119.080063 300.515472,118.492538 352.602142,175.228241 
	C376.151276,161.567703 399.755493,147.875214 423.858917,133.893127 
	C384.224121,110.927391 345.401398,88.432198 305.941986,65.569595 
M75.055763,189.448380 
	C70.853233,187.040314 66.650711,184.632248 62.193779,182.078400 
	C62.077122,183.179184 62.011429,183.509796 62.011387,183.840408 
	C62.004330,240.668671 62.085621,297.497131 61.941090,354.325043 
	C61.904591,368.676605 67.742973,379.021729 80.237534,386.212433 
	C125.910988,412.497772 171.447937,439.020294 217.037125,465.452057 
	C220.860947,467.669067 224.690994,469.875366 228.837524,472.271210 
	C228.837524,444.400208 228.837524,417.158142 228.837524,389.794952 
	C191.979691,380.650299 163.440002,360.254089 144.560867,327.390442 
	C125.684998,294.532501 122.576118,259.594055 133.279907,223.199860 
	C113.907257,211.986618 94.788048,200.920059 75.055763,189.448380 
M338.675415,363.192505 
	C323.696808,375.567657 306.750610,384.115906 287.922150,388.776917 
	C284.710449,389.571960 284.132996,390.931610 284.150940,393.841400 
	C284.261932,411.832153 284.206757,429.823883 284.206757,447.815308 
	C284.206757,455.747955 284.206726,463.680573 284.206726,472.247803 
	C286.012878,471.312164 287.316925,470.703125 288.557465,469.984467 
	C336.870331,441.996155 385.151550,413.953247 433.503326,386.032349 
	C445.574066,379.062042 451.434906,368.956543 451.402252,354.953979 
	C451.272034,299.147583 451.352478,243.340714 451.340607,187.534027 
	C451.340271,185.972626 451.178162,184.411240 451.050964,182.119095 
	C426.927490,196.101715 403.432709,209.719925 380.044250,223.276520 
	C395.557831,275.874847 380.139435,328.202576 338.675415,363.192505 
M280.132996,317.760773 
	C280.885345,317.412079 281.645233,317.078705 282.388916,316.712372 
	C308.903412,303.652466 322.004730,274.129456 313.840302,245.845535 
	C306.007843,218.711746 278.429565,200.023483 250.973663,203.244232 
	C221.167114,206.740753 199.140213,229.827682 197.213623,259.591431 
	C194.401657,303.033661 238.039566,334.051270 280.132996,317.760773 
z"/>
<path fill="#FEFEFE" opacity="1.000000" stroke="none" 
	d="
M306.260345,65.753296 
	C345.401398,88.432198 384.224121,110.927391 423.858917,133.893127 
	C399.755493,147.875214 376.151276,161.567703 352.602142,175.228241 
	C300.515472,118.492538 212.664200,119.080063 160.896271,175.257660 
	C137.441467,161.663589 113.914352,148.027634 89.742409,134.017929 
	C91.278481,133.040802 92.270012,132.359055 93.307854,131.757172 
	C142.046890,103.492104 190.794785,75.242355 239.528946,46.968895 
	C251.066833,40.275108 262.535492,40.318302 274.037872,47.036320 
	C284.657990,53.239037 295.306183,59.393738 306.260345,65.753296 
z"/>
<path fill="#FEFEFE" opacity="1.000000" stroke="none" 
	d="
M75.362305,189.650940 
	C94.788048,200.920059 113.907257,211.986618 133.279907,223.199860 
	C122.576118,259.594055 125.684998,294.532501 144.560867,327.390442 
	C163.440002,360.254089 191.979691,380.650299 228.837524,389.794952 
	C228.837524,417.158142 228.837524,444.400208 228.837524,472.271210 
	C224.690994,469.875366 220.860947,467.669067 217.037125,465.452057 
	C171.447937,439.020294 125.910988,412.497772 80.237534,386.212433 
	C67.742973,379.021729 61.904591,368.676605 61.941090,354.325043 
	C62.085621,297.497131 62.004330,240.668671 62.011387,183.840408 
	C62.011429,183.509796 62.077122,183.179184 62.193779,182.078400 
	C66.650711,184.632248 70.853233,187.040314 75.362305,189.650940 
z"/>
<path fill="#FEFEFE" opacity="1.000000" stroke="none" 
	d="
M338.957092,362.976746 
	C380.139435,328.202576 395.557831,275.874847 380.044250,223.276520 
	C403.432709,209.719925 426.927490,196.101715 451.050964,182.119095 
	C451.178162,184.411240 451.340271,185.972626 451.340607,187.534027 
	C451.352478,243.340714 451.272034,299.147583 451.402252,354.953979 
	C451.434906,368.956543 445.574066,379.062042 433.503326,386.032349 
	C385.151550,413.953247 336.870331,441.996155 288.557465,469.984467 
	C287.316925,470.703125 286.012878,471.312164 284.206726,472.247803 
	C284.206726,463.680573 284.206757,455.747955 284.206757,447.815308 
	C284.206757,429.823883 284.261932,411.832153 284.150940,393.841400 
	C284.132996,390.931610 284.710449,389.571960 287.922150,388.776917 
	C306.750610,384.115906 323.696808,375.567657 338.957092,362.976746 
z"/>
<path fill="#FEFEFE" opacity="1.000000" stroke="none" 
	d="
M279.766937,317.885254 
	C238.039566,334.051270 194.401657,303.033661 197.213623,259.591431 
	C199.140213,229.827682 221.167114,206.740753 250.973663,203.244232 
	C278.429565,200.023483 306.007843,218.711746 313.840302,245.845535 
	C322.004730,274.129456 308.903412,303.652466 282.388916,316.712372 
	C281.645233,317.078705 280.885345,317.412079 279.766937,317.885254 
z"/>
</svg>